<svg width="1526" height="1530" version="1.1" xmlns="http://www.w3.org/2000/svg" desc="Created with imagetracer.js version 1.2.6" ><path fill="rgb(212,212,212)" stroke="rgb(212,212,212)" stroke-width="1" opacity="1" d="M 1147.5 61 Q 1153 60 1154 63.5 Q 1151.7 74.2 1143.5 79 L 1140 80 Q 1141.1 82.7 1138.5 82 L 1133 86 Q 1134.1 88.7 1131.5 88 L 1124.5 94 Q 1122.3 93.3 1123 89.5 Q 1130.6 75.1 1141.5 64 L 1144.5 63 L 1143.5 65 L 1138 69.5 Q 1129.1 79.1 1124 92.5 L 1125.5 92 L 1137 83 Q 1135.9 80.3 1138.5 81 L 1152 68.5 L 1153 63.5 Q 1152.3 61.3 1148.5 62 L 1146.5 63 L 1147.5 61 Z " /><path fill="rgb(212,212,212)" stroke="rgb(212,212,212)" stroke-width="1" opacity="1" d="M 938.5 84 L 960.5 85 L 973 89.5 L 971.5 90 L 958.5 86 L 931.5 86 L 927.5 87 L 928.5 85 L 937.5 85 L 938.5 84 Z " /><path fill="rgb(212,212,212)" stroke="rgb(212,212,212)" stroke-width="1" opacity="1" d="M 922.5 87 L 925 87.5 Q 899.6 93.6 886 111.5 L 874 131.5 L 867 152.5 L 861 165.5 L 852.5 174 L 816 201 L 802.5 220 L 802 218.5 L 806 213.5 L 806 211 Q 808.7 212.1 808 209.5 L 820.5 196 L 857 169 L 858.5 166 Q 861.1 166.8 860 163.5 L 866 152.5 L 869 140.5 L 875 129.5 L 875 126.5 L 884 112.5 L 893.5 102 L 899 99 Q 897.8 96 901.5 97 L 910.5 91 L 922.5 87 Z " /><path fill="rgb(212,212,212)" stroke="rgb(212,212,212)" stroke-width="1" opacity="1" d="M 974.5 90 L 984.5 94 L 1000 106 Q 998.9 108.7 1001.5 108 Q 1006.5 114 1017 114.5 L 1012.5 115 L 1002.5 111 L 985.5 96 L 974.5 91 L 974.5 90 Z " /><path fill="rgb(212,212,212)" stroke="rgb(212,212,212)" stroke-width="1" opacity="1" d="M 1144.5 96 L 1160.5 96 L 1166 99 L 1167 103.5 L 1164.5 107 Q 1161.6 110.6 1153.5 109 L 1151 107.5 L 1153.5 107 L 1155.5 107 L 1158.5 108 L 1162.5 107 L 1166 103.5 Q 1166.5 99.5 1163.5 99 Q 1161.2 96.3 1155.5 97 L 1151.5 98 L 1146.5 97 L 1138 99 Q 1137 103.7 1140.5 105 L 1150 106.5 L 1143.5 107 L 1137 103.5 Q 1136 99 1138.5 98 L 1144.5 96 Z " /><path fill="rgb(212,212,212)" stroke="rgb(212,212,212)" stroke-width="1" opacity="1" d="M 1045.5 106 L 1063.5 106 L 1066 107.5 L 1061.5 108 L 1060.5 107 L 1048.5 107 Q 1047.3 109.3 1042.5 108 L 1042.5 107 L 1045.5 106 Z " /><path fill="rgb(212,212,212)" stroke="rgb(212,212,212)" stroke-width="1" opacity="1" d="M 1037.5 108 L 1041 108.5 L 1022.5 114 L 1018.5 114 L 1018.5 113 L 1029.5 111 L 1037.5 108 Z " /><path fill="rgb(212,212,212)" stroke="rgb(212,212,212)" stroke-width="1" opacity="1" d="M 1067.5 108 L 1078.5 112 L 1091 122.5 L 1093 125.5 L 1099 135.5 L 1100 141.5 L 1099 141.5 Q 1095 124.5 1082.5 116 L 1074.5 111 L 1067.5 109 L 1067.5 108 Z " /><path fill="rgb(212,212,212)" stroke="rgb(212,212,212)" stroke-width="1" opacity="1" d="M 1100.5 143 L 1103 151.5 L 1103 160.5 L 1102 160.5 L 1100.5 143 Z " /><path fill="rgb(212,212,212)" stroke="rgb(212,212,212)" stroke-width="1" opacity="1" d="M 1103.5 165 L 1106 177.5 L 1112 187 Q 1114.7 185.9 1114 188.5 L 1122.5 197 L 1124 197 Q 1122.9 199.7 1125.5 199 L 1127 202 L 1130 203.5 Q 1129.3 205.8 1131.5 205 L 1133 208 L 1136 209.5 L 1138 212.5 L 1147 224.5 L 1153 239.5 L 1154 244.5 L 1154 266.5 L 1151 280.5 L 1144 296.5 L 1127.5 315 L 1105.5 327 L 1090.5 328 L 1086 327 L 1086 323 L 1087.5 323 L 1112.5 310 L 1129 295.5 L 1135 285 Q 1132.3 283.9 1133 286.5 L 1130 291 L 1127 292.5 Q 1127.8 294.8 1125.5 294 L 1119.5 300 L 1100.5 312 L 1094.5 315 L 1084.5 318 L 1079.5 318 L 1078 319.5 Q 1078.8 323.3 1076.5 324 L 1076 321.5 L 1078.5 316 L 1087.5 316 L 1105.5 308 L 1129 289.5 L 1137.5 278 Q 1140.3 279.3 1138 280.5 Q 1133.1 296.1 1121.5 305 L 1104.5 316 L 1089.5 322 L 1087 324.5 Q 1086.1 327.5 1090.5 326 Q 1092.3 328.8 1098.5 327 L 1114.5 322 Q 1126.6 316.1 1135 306.5 Q 1144 296.5 1149 282.5 L 1153 263.5 L 1153 246.5 L 1149 231.5 L 1145 223.5 Q 1134.8 207.7 1120.5 196 L 1113 189.5 L 1104 175.5 L 1103.5 165 Z " /><path fill="rgb(212,212,212)" stroke="rgb(212,212,212)" stroke-width="1" opacity="1" d="M 980.5 195 Q 985.3 194.3 986 197.5 L 991 205 L 1000 209.5 L 996.5 210 L 990 206 L 982.5 196 L 973 201 L 971.5 204 L 968.5 206 L 965.5 210 Q 963.3 209.3 964 211.5 L 961 213 L 948 231 Q 945.3 229.9 946 232.5 L 935.5 246 Q 933.3 245.3 934 247.5 L 931 249 L 929.5 252 L 921.5 258 L 915.5 261 L 912.5 261 L 910.5 263 Q 903.8 265.3 893.5 264 L 884 257.5 L 879.5 251 L 877 249.5 L 878.5 249 L 882 251.5 L 886 259 L 895.5 263 L 904.5 263 Q 925.6 257.6 937 242.5 Q 953.8 217.8 975.5 198 L 980.5 195 Z " /><path fill="rgb(212,212,212)" stroke="rgb(212,212,212)" stroke-width="1" opacity="1" d="M 1027.5 199 Q 1034.8 197.8 1036 202.5 L 1053 237.5 L 1067.5 253 L 1072 256.5 L 1073 291.5 L 1071.5 299 L 1071 285.5 L 1072 284.5 L 1072 276.5 L 1071 275.5 L 1071 256.5 L 1069.5 255 L 1066.5 254 L 1056 243.5 L 1048 231.5 L 1034 201 L 1028.5 200 L 1025.5 201 L 1025.5 200 L 1027.5 199 Z " /><path fill="rgb(212,212,212)" stroke="rgb(212,212,212)" stroke-width="1" opacity="1" d="M 1022.5 201 Q 1025.1 200.3 1024 203 L 1019.5 204 L 1012.5 209 L 1007.5 210 L 1007.5 209 Q 1016.8 206.8 1022.5 201 Z " /><path fill="rgb(212,212,212)" stroke="rgb(212,212,212)" stroke-width="1" opacity="1" d="M 801.5 221 L 802 222.5 L 799.5 227 L 799 225.5 L 801.5 221 Z " /><path fill="rgb(212,212,212)" stroke="rgb(212,212,212)" stroke-width="1" opacity="1" d="M 798.5 228 L 799 229.5 L 796.5 236 L 796 233.5 L 798.5 228 Z " /><path fill="rgb(212,212,212)" stroke="rgb(212,212,212)" stroke-width="1" opacity="1" d="M 1026.5 232 L 1030 232.5 L 1023.5 235 L 1023 233 L 1026.5 232 Z " /><path fill="rgb(212,212,212)" stroke="rgb(212,212,212)" stroke-width="1" opacity="1" d="M 1038.5 232 Q 1045.7 232.3 1048 237.5 L 1049 241.5 L 1046.5 246 L 1044 245.5 L 1047 243.5 Q 1048 237 1044.5 235 L 1038.5 233 L 1038.5 232 Z " /><path fill="rgb(212,212,212)" stroke="rgb(212,212,212)" stroke-width="1" opacity="1" d="M 981.5 233 Q 986.9 232.1 989 234.5 L 978.5 235 L 978.5 234 L 981.5 233 Z " /><path fill="rgb(212,212,212)" stroke="rgb(212,212,212)" stroke-width="1" opacity="1" d="M 973.5 235 L 976 235.5 L 964 241 Q 965.1 243.7 962.5 243 Q 959.2 244.7 960 250.5 L 961 253 L 967.5 253 L 968 251.5 L 976.5 246 L 975.5 248 Q 969.8 249.3 967.5 254 L 963.5 255 L 959 251.5 L 959 245.5 L 965.5 239 L 973.5 235 Z " /><path fill="rgb(212,212,212)" stroke="rgb(212,212,212)" stroke-width="1" opacity="1" d="M 990.5 235 L 993.5 235 L 1000 239.5 L 1001 245.5 Q 999.7 250.2 992.5 249 L 990 248 L 990.5 246 L 996.5 248 L 999 247 L 1000 241.5 Q 997.1 236.9 990.5 236 L 990.5 235 Z " /><path fill="rgb(212,212,212)" stroke="rgb(212,212,212)" stroke-width="1" opacity="1" d="M 1020.5 235 L 1022 235.5 Q 1017.8 236.8 1019 243.5 L 1023.5 246 L 1031.5 242 L 1036.5 242 L 1042 245.5 L 1039.5 246 Q 1038.3 241.8 1031.5 243 L 1029.5 245 L 1022.5 247 L 1018 244.5 L 1017 239.5 L 1020.5 235 Z " /><path fill="rgb(212,212,212)" stroke="rgb(212,212,212)" stroke-width="1" opacity="1" d="M 795.5 237 L 796 239.5 L 793.5 252 L 793 244.5 L 795.5 237 Z " /><path fill="rgb(212,212,212)" stroke="rgb(212,212,212)" stroke-width="1" opacity="1" d="M 982.5 244 L 989 245.5 L 978.5 246 L 978.5 245 L 982.5 244 Z " /><path fill="rgb(212,212,212)" stroke="rgb(212,212,212)" stroke-width="1" opacity="1" d="M 871.5 248 L 876 248.5 L 871.5 249 L 871.5 248 Z " /><path fill="rgb(212,212,212)" stroke="rgb(212,212,212)" stroke-width="1" opacity="1" d="M 868.5 249 L 870 249.5 L 861 256.5 L 858 261.5 L 858 275.5 Q 861.8 286.2 870.5 292 L 877.5 296 L 888 299 L 885.5 303 L 875.5 306 L 864.5 303 L 863.5 304 L 845.5 304 Q 825.9 300.6 815.5 288 L 815 289.5 L 828.5 302 L 841.5 308 L 845.5 308 L 853.5 311 L 873.5 311 L 876 313.5 L 869.5 318 L 863.5 319 L 863.5 318 Q 870.4 317.4 874 313.5 L 872.5 312 L 853.5 312 L 835.5 307 Q 824.8 301.8 817 293.5 L 815 290.5 L 809 282.5 L 805 272.5 L 807 273.5 Q 812.6 285.4 822.5 293 Q 835.7 304.8 862.5 303 Q 863.8 300.8 868.5 302 Q 871.7 305.8 880.5 304 L 887 300.5 L 871.5 294 L 862 285.5 Q 855.6 278.4 856 264.5 Q 858.5 256 864.5 251 L 868.5 249 Z " /><path fill="rgb(212,212,212)" stroke="rgb(212,212,212)" stroke-width="1" opacity="1" d="M 793.5 262 L 796 276.5 L 794 275.5 L 793.5 262 Z " /><path fill="rgb(212,212,212)" stroke="rgb(212,212,212)" stroke-width="1" opacity="1" d="M 892.5 269 L 895 270 L 894.5 278 L 892.5 272 L 890.5 279 L 890 274.5 L 892.5 269 Z " /><path fill="rgb(212,212,212)" stroke="rgb(212,212,212)" stroke-width="1" opacity="1" d="M 976.5 276 L 980.5 277 L 988.5 283 L 997.5 283 L 1005.5 278 L 1009.5 278 Q 1013.3 279.3 1012 285.5 L 1011 288 L 998.5 294 L 988.5 294 L 978.5 290 L 972 283.5 Q 971 278 974.5 277 L 976.5 276 Z M 977 277 L 974 278 L 973 283 L 980 289 L 986 292 Q 990 291 992 293 Q 1005 293 1011 286 Q 1012 280 1009 279 L 998 284 L 986 283 L 979 277 L 977 277 Z " /><path fill="rgb(212,212,212)" stroke="rgb(212,212,212)" stroke-width="1" opacity="1" d="M 1018.5 276 L 1024.5 276 L 1031.5 282 L 1038.5 284 L 1045.5 280 L 1049.5 280 L 1052 281 L 1051.5 283 L 1046.5 281 L 1039.5 285 L 1035.5 285 Q 1028.4 282.6 1024.5 277 L 1018.5 277 L 1016 278 L 1016 281.5 L 1019 285.5 L 1022 295.5 L 1028 307.5 L 1033.5 314 Q 1038 315 1039 312.5 L 1031 295.5 L 1031 292 Q 1033.7 293.9 1040.5 293 Q 1047.3 291.8 1051 287.5 L 1051.5 286 L 1052 287.5 Q 1046.9 295.9 1032 294.5 L 1040 310.5 L 1040 313.5 L 1038.5 315 L 1032 315 Q 1033.1 312.3 1030.5 313 L 1021 296.5 Q 1019.9 287.6 1015 282.5 L 1015 278.5 L 1018.5 276 Z " /><path fill="rgb(212,212,212)" stroke="rgb(212,212,212)" stroke-width="1" opacity="1" d="M 796.5 278 Q 802.7 296.3 816.5 307 Q 829.2 318.8 852.5 320 L 853.5 319 L 861.5 319 L 861.5 320 L 858.5 321 L 843.5 321 Q 839.5 318 832.5 318 L 824.5 314 L 808 300.5 L 797 283.5 L 796.5 278 Z " /><path fill="rgb(212,212,212)" stroke="rgb(212,212,212)" stroke-width="1" opacity="1" d="M 895.5 279 L 897 281.5 L 898 291.5 L 897 291.5 L 895.5 279 Z " /><path fill="rgb(212,212,212)" stroke="rgb(212,212,212)" stroke-width="1" opacity="1" d="M 889.5 280 L 890 293.5 L 889 293.5 L 888 284.5 L 889.5 280 Z " /><path fill="rgb(212,212,212)" stroke="rgb(212,212,212)" stroke-width="1" opacity="1" d="M 898.5 293 L 901 302.5 L 900 302.5 L 898 296.5 L 898.5 293 Z " /><path fill="rgb(212,212,212)" stroke="rgb(212,212,212)" stroke-width="1" opacity="1" d="M 890.5 295 L 893 307.5 L 891 306.5 L 890.5 295 Z " /><path fill="rgb(212,212,212)" stroke="rgb(212,212,212)" stroke-width="1" opacity="1" d="M 1070.5 301 L 1071 304.5 L 1065.5 324 L 1065 320.5 L 1068 314.5 L 1069 303.5 L 1070.5 301 Z " /><path fill="rgb(212,212,212)" stroke="rgb(212,212,212)" stroke-width="1" opacity="1" d="M 901.5 304 L 904 311.5 L 903 311.5 L 901.5 304 Z " /><path fill="rgb(212,212,212)" stroke="rgb(212,212,212)" stroke-width="1" opacity="1" d="M 893.5 309 Q 898.7 326.3 908 339.5 L 906 340 L 896 320.5 L 896 317.5 L 893 312.5 L 893.5 309 Z " /><path fill="rgb(212,212,212)" stroke="rgb(212,212,212)" stroke-width="1" opacity="1" d="M 904.5 313 L 907 318.5 L 905 317.5 L 904.5 313 Z " /><path fill="rgb(212,212,212)" stroke="rgb(212,212,212)" stroke-width="1" opacity="1" d="M 907.5 320 L 910 324.5 L 908 323.5 L 907.5 320 Z " /><path fill="rgb(212,212,212)" stroke="rgb(212,212,212)" stroke-width="1" opacity="1" d="M 1064.5 325 L 1065 326.5 Q 1055.7 352.2 1036.5 368 L 1024.5 376 L 1020.5 377 L 1021.5 375 Q 1036.1 369.6 1045 358.5 L 1056 343.5 L 1064.5 325 Z " /><path fill="rgb(212,212,212)" stroke="rgb(212,212,212)" stroke-width="1" opacity="1" d="M 1075.5 325 L 1076 327.5 L 1069 344.5 L 1054 367 Q 1051.3 365.9 1052 368.5 L 1048 371.5 Q 1048.8 373.8 1046.5 373 L 1042 376 Q 1043.1 378.7 1040.5 378 L 1025.5 387 L 1020.5 388 L 1011.5 393 L 1003.5 394 L 1003.5 393 L 1010.5 392 L 1036.5 380 L 1053 365.5 Q 1068 349 1075.5 325 Z " /><path fill="rgb(212,212,212)" stroke="rgb(212,212,212)" stroke-width="1" opacity="1" d="M 910.5 326 Q 913.1 325.2 912 328.5 Q 922.3 346.7 937.5 360 L 940.5 362 L 943 363 Q 941.9 365.7 944.5 365 L 953.5 371 L 966 376.5 L 964.5 377 L 954.5 373 L 935 360 Q 936.1 357.3 933.5 358 L 932 355 L 929 353.5 Q 916.9 341.4 910.5 326 Z " /><path fill="rgb(212,212,212)" stroke="rgb(212,212,212)" stroke-width="1" opacity="1" d="M 985.5 326 Q 992.8 324.8 994 329.5 L 996 335 L 1002 337.5 L 999.5 338 L 993 332.5 L 992 328 L 986.5 327 Q 983.3 327.8 984 332.5 Q 985.8 339.7 991.5 343 L 996.5 346 L 1007.5 347 L 1012 343.5 Q 1012.8 338.8 1009.5 338 L 1006 337.5 L 1009.5 336 L 1014 342.5 L 1011.5 346 Q 1008 350 998.5 348 L 986 339.5 Q 982.3 336.7 983 329.5 L 985.5 326 Z " /><path fill="rgb(212,212,212)" stroke="rgb(212,212,212)" stroke-width="1" opacity="1" d="M 908.5 341 L 919 354.5 L 920 358 L 915.5 359 L 916.5 357 Q 918.8 357.8 918 355.5 L 914 349 Q 911.3 350.1 912 347.5 L 908 342.5 L 908.5 341 Z " /><path fill="rgb(212,212,212)" stroke="rgb(212,212,212)" stroke-width="1" opacity="1" d="M 911.5 359 L 914 359.5 L 890.5 373 L 862 395 Q 863.1 397.7 860.5 397 L 832 424.5 Q 796.1 462.1 769.5 509 L 769 507.5 L 782 485 Q 784.7 486.1 784 483.5 L 794 468 Q 796.7 469.1 796 466.5 L 803 456 Q 805.7 457.1 805 454.5 L 824 431 Q 826.7 432.1 826 429.5 L 843.5 411 L 859 398 Q 857.9 395.3 860.5 396 L 866 392 Q 864.9 389.3 867.5 390 L 877 383 Q 875.9 380.3 878.5 381 L 881 380 Q 879.9 377.3 882.5 378 L 911.5 359 Z " /><path fill="rgb(212,212,212)" stroke="rgb(212,212,212)" stroke-width="1" opacity="1" d="M 1402.5 371 Q 1405.5 371.5 1405 375.5 L 1401 387 Q 1398 385.8 1399 389.5 L 1393 398.5 L 1392 403 L 1390 402.5 L 1400 385.5 L 1403 378.5 L 1403 373 Q 1394.1 373.2 1391 380.5 Q 1337.2 475.7 1275.5 563 L 1253.5 564 L 1254.5 562 L 1275.5 562 L 1276 560.5 L 1277 558 Q 1279.7 559.1 1279 556.5 L 1307 515.5 L 1307 513 Q 1309.7 514.1 1309 511.5 L 1357 436.5 L 1376 404.5 L 1376 402.5 L 1379 399.5 L 1380 395 Q 1383 396.3 1382 392.5 L 1392.5 377 Q 1394.8 377.8 1394 375.5 L 1398.5 372 L 1402.5 371 Z " /><path fill="rgb(212,212,212)" stroke="rgb(212,212,212)" stroke-width="1" opacity="1" d="M 908.5 374 L 924.5 374 L 928 375.5 L 923.5 376 L 922.5 375 L 909.5 375 L 905.5 376 L 905.5 375 L 908.5 374 Z " /><path fill="rgb(212,212,212)" stroke="rgb(212,212,212)" stroke-width="1" opacity="1" d="M 902.5 376 L 904 376.5 L 879 394 Q 880.1 396.7 877.5 396 L 865 406 L 863.5 409 L 861 410.5 Q 861.8 412.8 859.5 412 L 840 431.5 L 840 433 L 837 434.5 Q 837.8 436.8 835.5 436 L 818 458 Q 815.3 456.9 816 459.5 L 801 478.5 L 800 482 Q 797.3 480.9 798 483.5 L 794 491 Q 791.3 489.9 792 492.5 L 788 500 L 786 499.5 Q 816.7 449.7 858.5 411 Q 878.6 391.6 902.5 376 Z " /><path fill="rgb(212,212,212)" stroke="rgb(212,212,212)" stroke-width="1" opacity="1" d="M 929.5 376 L 949 384.5 L 947.5 385 L 935.5 379 L 930.5 378 L 929.5 376 Z " /><path fill="rgb(212,212,212)" stroke="rgb(212,212,212)" stroke-width="1" opacity="1" d="M 967.5 377 L 975.5 378 L 977 379.5 L 974.5 380 L 967.5 378 L 967.5 377 Z " /><path fill="rgb(212,212,212)" stroke="rgb(212,212,212)" stroke-width="1" opacity="1" d="M 1016.5 377 L 1019 377.5 L 1011.5 380 L 1012.5 378 L 1016.5 377 Z " /><path fill="rgb(212,212,212)" stroke="rgb(212,212,212)" stroke-width="1" opacity="1" d="M 979.5 380 L 1002.5 381 Q 1004 378.5 1009.5 380 L 1009.5 381 L 1004.5 382 L 983.5 382 L 979.5 381 L 979.5 380 Z " /><path fill="rgb(212,212,212)" stroke="rgb(212,212,212)" stroke-width="1" opacity="1" d="M 950.5 385 Q 960.1 390.9 973 393.5 L 968.5 394 L 957.5 390 L 955.5 388 L 950 387 L 950.5 385 Z " /><path fill="rgb(212,212,212)" stroke="rgb(212,212,212)" stroke-width="1" opacity="1" d="M 974.5 394 L 978.5 395 L 997.5 395 L 1001.5 394 L 1000.5 396 L 975.5 396 L 974.5 394 Z " /><path fill="rgb(212,212,212)" stroke="rgb(212,212,212)" stroke-width="1" opacity="1" d="M 1037.5 401 L 1043 405.5 Q 1042.3 408.1 1045 407 L 1045 409.5 L 1048 413.5 L 1052 425.5 L 1051 425.5 Q 1047.6 411.9 1039.5 403 L 1037 403.5 L 1045 428.5 L 1050 451.5 L 1049 451.5 L 1047 440.5 L 1045 437.5 L 1044 428.5 L 1042 425.5 L 1036 402.5 L 1037.5 401 Z " /><path fill="rgb(212,212,212)" stroke="rgb(212,212,212)" stroke-width="1" opacity="1" d="M 1389.5 404 L 1390 405.5 L 1381 419.5 L 1380 424 Q 1377 422.8 1378 426.5 L 1341 486.5 L 1308 535.5 L 1307 539 Q 1304 537.8 1305 541.5 L 1286 569 Q 1283.3 567.9 1284 570.5 L 1279.5 574 Q 1274 572.5 1272.5 575 L 1241.5 575 L 1241.5 574 L 1278.5 573 L 1286 566.5 Q 1341 488.5 1389.5 404 Z " /><path fill="rgb(212,212,212)" stroke="rgb(212,212,212)" stroke-width="1" opacity="1" d="M 1052.5 427 L 1054 428.5 L 1055 435.5 L 1054 435.5 L 1052.5 427 Z " /><path fill="rgb(212,212,212)" stroke="rgb(212,212,212)" stroke-width="1" opacity="1" d="M 1055.5 437 L 1057 438.5 L 1058 447.5 L 1057 447.5 L 1055.5 437 Z " /><path fill="rgb(212,212,212)" stroke="rgb(212,212,212)" stroke-width="1" opacity="1" d="M 1058.5 449 L 1060 450.5 L 1061 460.5 L 1060 460.5 L 1058.5 449 Z " /><path fill="rgb(212,212,212)" stroke="rgb(212,212,212)" stroke-width="1" opacity="1" d="M 1050.5 453 L 1053 466.5 L 1052 466.5 L 1050 458.5 L 1050.5 453 Z " /><path fill="rgb(212,212,212)" stroke="rgb(212,212,212)" stroke-width="1" opacity="1" d="M 1257.5 458 L 1265.5 459 L 1280 469 L 1295 489.5 L 1298 500.5 L 1296 506 Q 1293.3 507.1 1294 504.5 Q 1297.5 503 1296 496.5 L 1290 483.5 L 1275.5 467 L 1264.5 460 L 1258.5 459 L 1233.5 467 L 1224.5 473 L 1191.5 488 L 1152.5 501 L 1152 499 L 1154.5 498 L 1156.5 498 L 1160.5 498 L 1162.5 496 L 1169.5 495 L 1171.5 493 L 1174.5 493 L 1190.5 486 L 1193.5 486 L 1235.5 465 L 1257.5 458 Z " /><path fill="rgb(212,212,212)" stroke="rgb(212,212,212)" stroke-width="1" opacity="1" d="M 1061.5 462 L 1063 464.5 L 1064 474.5 L 1063 474.5 L 1061.5 462 Z " /><path fill="rgb(212,212,212)" stroke="rgb(212,212,212)" stroke-width="1" opacity="1" d="M 1255.5 467 L 1264.5 468 L 1273 474 Q 1271.9 476.7 1274.5 476 Q 1284.1 485.4 1290 498.5 Q 1288.3 501.8 1286.5 498 L 1282 494.5 Q 1276.2 483.3 1266.5 476 L 1256.5 470 L 1254 470 L 1255.5 467 Z M 1257 468 L 1257 470 L 1269 476 L 1281 491 L 1283 494 L 1288 498 L 1286 493 L 1279 484 Q 1280 481 1278 482 L 1272 475 Q 1269 476 1270 473 L 1264 469 L 1257 468 Z " /><path fill="rgb(212,212,212)" stroke="rgb(212,212,212)" stroke-width="1" opacity="1" d="M 1053.5 468 L 1056 481.5 L 1055 481.5 L 1053 473.5 L 1053.5 468 Z " /><path fill="rgb(212,212,212)" stroke="rgb(212,212,212)" stroke-width="1" opacity="1" d="M 1241.5 476 L 1250.5 477 Q 1260.3 481.3 1267 488.5 L 1272 494.5 L 1273 499 L 1264 494 Q 1265.1 491.3 1262.5 492 Q 1257.1 483.9 1241.5 486 Q 1229.2 488.7 1223 497.5 Q 1219.7 501.2 1221 509.5 L 1228.5 519 L 1246.5 530 L 1251 534.5 L 1252 539 L 1247.5 539 L 1236 534.5 L 1238.5 534 L 1250 538 L 1249 533 L 1241 529 Q 1242.3 526 1238.5 527 L 1223 515.5 L 1220 510.5 L 1219 504.5 L 1223 495 Q 1225.7 496.1 1225 493.5 L 1236.5 486 Q 1242.2 486.7 1244.5 484 L 1250.5 484 L 1258.5 487 L 1270.5 497 L 1271 495.5 L 1270 493 Q 1267.3 494.1 1268 491.5 Q 1261.9 483.6 1252.5 479 Q 1246.6 476.4 1236.5 478 L 1224.5 482 L 1222.5 484 L 1217.5 485 Q 1209.7 491.2 1198.5 494 L 1199.5 492 L 1204.5 491 L 1226.5 480 L 1241.5 476 Z " /><path fill="rgb(212,212,212)" stroke="rgb(212,212,212)" stroke-width="1" opacity="1" d="M 1064.5 477 L 1066 478.5 L 1067 488.5 L 1066 488.5 L 1064.5 477 Z " /><path fill="rgb(212,212,212)" stroke="rgb(212,212,212)" stroke-width="1" opacity="1" d="M 1056.5 483 L 1059 495.5 L 1057 494.5 L 1056.5 483 Z " /><path fill="rgb(212,212,212)" stroke="rgb(212,212,212)" stroke-width="1" opacity="1" d="M 1067.5 491 L 1069 492.5 L 1070 502.5 Q 1073 505.5 1073 511.5 L 1072 511.5 L 1068 499.5 L 1067.5 491 Z " /><path fill="rgb(212,212,212)" stroke="rgb(212,212,212)" stroke-width="1" opacity="1" d="M 1195.5 494 L 1197 494.5 L 1181.5 502 L 1176.5 503 L 1177.5 501 L 1195.5 494 Z " /><path fill="rgb(212,212,212)" stroke="rgb(212,212,212)" stroke-width="1" opacity="1" d="M 1241.5 494 L 1245 494.5 L 1236.5 497 L 1230 502.5 L 1229 506.5 L 1230 508.5 L 1228 507.5 L 1228 503.5 L 1234.5 497 L 1241.5 494 Z " /><path fill="rgb(212,212,212)" stroke="rgb(212,212,212)" stroke-width="1" opacity="1" d="M 1249.5 494 L 1254.5 495 L 1270 508.5 L 1268.5 509 L 1259 502 L 1257.5 499 L 1254.5 497 L 1249.5 495 L 1249.5 494 Z " /><path fill="rgb(212,212,212)" stroke="rgb(212,212,212)" stroke-width="1" opacity="1" d="M 1059.5 497 L 1062 508.5 L 1060 507.5 L 1059.5 497 Z " /><path fill="rgb(212,212,212)" stroke="rgb(212,212,212)" stroke-width="1" opacity="1" d="M 785.5 501 L 786 502.5 L 777 516.5 L 765.5 541 L 765 539.5 Q 773.6 518.6 785.5 501 Z " /><path fill="rgb(212,212,212)" stroke="rgb(212,212,212)" stroke-width="1" opacity="1" d="M 1148.5 501 L 1151 501.5 L 1143.5 504 L 1144.5 502 L 1148.5 501 Z " /><path fill="rgb(212,212,212)" stroke="rgb(212,212,212)" stroke-width="1" opacity="1" d="M 882.5 503 L 888 506.5 L 886 513.5 L 879 524 Q 876.3 522.9 877 525.5 L 867 539.5 L 861 553.5 L 861 556.5 L 858 560.5 L 858 565.5 L 855 574 L 852 572.5 L 850 561.5 L 851 560.5 L 851 552.5 L 855 540.5 L 867 518.5 L 873.5 510 Q 875.8 510.8 875 508.5 L 882.5 503 Z M 883 504 L 881 505 Q 869 515 862 530 L 853 550 L 852 562 L 851 563 L 854 572 L 856 569 L 856 564 L 862 548 Q 871 529 884 515 Q 887 512 886 507 L 883 504 Z " /><path fill="rgb(212,212,212)" stroke="rgb(212,212,212)" stroke-width="1" opacity="1" d="M 1172.5 503 L 1175 503.5 L 1168.5 506 L 1169.5 504 L 1172.5 503 Z " /><path fill="rgb(212,212,212)" stroke="rgb(212,212,212)" stroke-width="1" opacity="1" d="M 1138.5 504 L 1142 504.5 L 1133.5 507 L 1134.5 505 L 1138.5 504 Z " /><path fill="rgb(212,212,212)" stroke="rgb(212,212,212)" stroke-width="1" opacity="1" d="M 1009.5 505 L 1015 507 L 1016 520.5 L 1018 527.5 L 1018 535.5 Q 1022 542.5 1023 552.5 L 1021 556 Q 1016.3 556.8 1015 552.5 L 1011 544.5 L 1008 533.5 L 1008 527.5 L 1005 518.5 L 1005 509.5 L 1009.5 505 Z M 1011 506 L 1007 509 L 1007 523 L 1009 527 L 1010 537 L 1013 547 L 1016 552 L 1020 555 L 1022 553 L 1016 531 L 1014 509 L 1011 506 Z " /><path fill="rgb(212,212,212)" stroke="rgb(212,212,212)" stroke-width="1" opacity="1" d="M 1165.5 506 L 1167 506.5 L 1160 510.5 L 1160 514.5 L 1157 520.5 L 1157 525.5 L 1155 532.5 L 1155 542.5 L 1153.5 544 Q 1149.5 544.5 1149 541.5 L 1147 537.5 L 1147 517.5 L 1144.5 515 L 1132.5 518 L 1132.5 517 L 1146 514 L 1148 517.5 L 1148 535.5 L 1149 539.5 L 1152.5 543 L 1154 541.5 L 1155 523.5 L 1160 508 L 1165.5 506 Z " /><path fill="rgb(212,212,212)" stroke="rgb(212,212,212)" stroke-width="1" opacity="1" d="M 1285.5 506 L 1286 507.5 L 1284 511 L 1275.5 512 L 1271 509.5 L 1272.5 509 L 1278.5 511 L 1284 508.5 L 1285.5 506 Z " /><path fill="rgb(212,212,212)" stroke="rgb(212,212,212)" stroke-width="1" opacity="1" d="M 1287.5 506 L 1293 506.5 L 1289.5 508 L 1287.5 506 Z " /><path fill="rgb(212,212,212)" stroke="rgb(212,212,212)" stroke-width="1" opacity="1" d="M 1128.5 507 L 1132 507.5 L 1123.5 510 L 1124.5 508 L 1128.5 507 Z " /><path fill="rgb(212,212,212)" stroke="rgb(212,212,212)" stroke-width="1" opacity="1" d="M 767 510 L 769 510.5 L 757.5 533 L 757 531.5 L 767 512.5 L 767 510 Z " /><path fill="rgb(212,212,212)" stroke="rgb(212,212,212)" stroke-width="1" opacity="1" d="M 1062.5 510 Q 1063.7 518.8 1069.5 523 L 1079.5 526 L 1093.5 526 L 1094.5 525 L 1106.5 524 L 1106.5 525 L 1096.5 527 L 1077.5 527 L 1068.5 524 L 1065 520.5 L 1062 513.5 L 1062.5 510 Z " /><path fill="rgb(212,212,212)" stroke="rgb(212,212,212)" stroke-width="1" opacity="1" d="M 1117.5 510 L 1122 510.5 L 1111.5 513 L 1111.5 512 L 1117.5 510 Z " /><path fill="rgb(212,212,212)" stroke="rgb(212,212,212)" stroke-width="1" opacity="1" d="M 1230.5 510 L 1238 514 Q 1236.8 517 1240.5 516 L 1251.5 523 L 1257 528.5 Q 1261.7 532.3 1260 542.5 Q 1257.6 548.1 1249.5 548 Q 1248.3 545.8 1243.5 547 L 1242 545.5 L 1244.5 545 L 1245.5 546 L 1254.5 546 L 1257 545 L 1259 541.5 L 1259 534.5 L 1255 527 L 1235.5 515 L 1230.5 510 Z " /><path fill="rgb(212,212,212)" stroke="rgb(212,212,212)" stroke-width="1" opacity="1" d="M 1073.5 513 L 1077 515.5 L 1075.5 516 L 1073.5 513 Z " /><path fill="rgb(212,212,212)" stroke="rgb(212,212,212)" stroke-width="1" opacity="1" d="M 1104.5 513 L 1110 513.5 L 1095.5 516 L 1095.5 515 L 1104.5 513 Z " /><path fill="rgb(212,212,212)" stroke="rgb(212,212,212)" stroke-width="1" opacity="1" d="M 1079.5 516 L 1092 516.5 L 1079.5 517 L 1079.5 516 Z " /><path fill="rgb(212,212,212)" stroke="rgb(212,212,212)" stroke-width="1" opacity="1" d="M 1129.5 518 L 1131 518.5 L 1129.5 520 L 1122.5 521 L 1122.5 520 L 1129.5 518 Z " /><path fill="rgb(212,212,212)" stroke="rgb(212,212,212)" stroke-width="1" opacity="1" d="M 1117.5 521 L 1120 521.5 L 1118.5 523 L 1109.5 524 L 1109.5 523 L 1117.5 521 Z " /><path fill="rgb(212,212,212)" stroke="rgb(212,212,212)" stroke-width="1" opacity="1" d="M 1207.5 529 L 1222.5 529 L 1224 530.5 L 1219.5 531 Q 1217.8 528.2 1211.5 530 Q 1210 532.5 1204.5 531 L 1204.5 530 L 1207.5 529 Z " /><path fill="rgb(212,212,212)" stroke="rgb(212,212,212)" stroke-width="1" opacity="1" d="M 1194.5 531 L 1202 531.5 L 1187.5 534 L 1171.5 534 L 1167.5 533 L 1167.5 534 L 1180 538.5 L 1176.5 539 L 1166 533.5 Q 1167.5 530.5 1173.5 532 L 1174.5 533 L 1183.5 533 L 1194.5 531 Z " /><path fill="rgb(212,212,212)" stroke="rgb(212,212,212)" stroke-width="1" opacity="1" d="M 1226.5 531 L 1233.5 532 L 1235 533.5 L 1233.5 534 L 1226.5 532 L 1226.5 531 Z " /><path fill="rgb(212,212,212)" stroke="rgb(212,212,212)" stroke-width="1" opacity="1" d="M 756.5 534 L 757 535.5 L 753 543.5 L 748.5 558 L 748 554.5 L 756.5 534 Z " /><path fill="rgb(212,212,212)" stroke="rgb(212,212,212)" stroke-width="1" opacity="1" d="M 1206.5 538 L 1222 538.5 L 1206.5 539 L 1206.5 538 Z " /><path fill="rgb(212,212,212)" stroke="rgb(212,212,212)" stroke-width="1" opacity="1" d="M 1181.5 539 L 1197.5 540 Q 1198.8 537.8 1203.5 539 L 1203.5 540 L 1201.5 541 L 1183.5 541 L 1181.5 539 Z " /><path fill="rgb(212,212,212)" stroke="rgb(212,212,212)" stroke-width="1" opacity="1" d="M 1223.5 539 L 1241 544.5 L 1238.5 545 L 1232.5 542 L 1225.5 541 L 1223.5 539 Z " /><path fill="rgb(212,212,212)" stroke="rgb(212,212,212)" stroke-width="1" opacity="1" d="M 764.5 542 L 765 544.5 L 762.5 549 L 762 547.5 L 764.5 542 Z " /><path fill="rgb(212,212,212)" stroke="rgb(212,212,212)" stroke-width="1" opacity="1" d="M 1139.5 546 L 1142 546.5 L 1124 558.5 Q 1124.8 560.8 1122.5 560 Q 1119.8 566.2 1112.5 568 L 1101.5 568 L 1100.5 569 L 1086.5 570 L 1086.5 569 Q 1090 566.5 1097.5 568 L 1098.5 567 L 1113 567 L 1113 558.5 L 1115 558 L 1115.5 565 L 1128 555 Q 1126.9 552.3 1129.5 553 L 1139.5 546 Z " /><path fill="rgb(212,212,212)" stroke="rgb(212,212,212)" stroke-width="1" opacity="1" d="M 1148.5 546 L 1152 547 Q 1155.7 550.4 1154 560.5 L 1153 565 L 1242.5 564 L 1242.5 565 L 1196.5 566 L 1195.5 567 L 1151 567 L 1153 558.5 L 1153 552.5 L 1150.5 548 L 1148.5 546 Z " /><path fill="rgb(212,212,212)" stroke="rgb(212,212,212)" stroke-width="1" opacity="1" d="M 761.5 550 L 762 552.5 L 759.5 558 L 759 556.5 L 761.5 550 Z " /><path fill="rgb(212,212,212)" stroke="rgb(212,212,212)" stroke-width="1" opacity="1" d="M 747.5 559 L 748 561.5 L 745.5 570 L 745 565.5 L 747.5 559 Z " /><path fill="rgb(212,212,212)" stroke="rgb(212,212,212)" stroke-width="1" opacity="1" d="M 758.5 559 L 759 562.5 L 756.5 569 L 756 566.5 L 758.5 559 Z " /><path fill="rgb(212,212,212)" stroke="rgb(212,212,212)" stroke-width="1" opacity="1" d="M 1140.5 559 Q 1142.8 559.8 1142 563.5 L 1140.5 566 L 1140 563.5 L 1141 560.5 L 1138.5 562 L 1118 580.5 L 1116.5 584 L 1115.5 583 L 1108.5 590 L 1104.5 593 L 1093.5 596 L 1062.5 596 L 1061 597.5 L 1060.5 599 L 1060 597.5 L 1061 595 L 1066.5 594 L 1067.5 595 L 1088.5 595 L 1089.5 594 L 1097.5 594 L 1105.5 591 L 1135.5 562 L 1140.5 559 Z " /><path fill="rgb(212,212,212)" stroke="rgb(212,212,212)" stroke-width="1" opacity="1" d="M 1139.5 567 L 1140 571.5 Q 1137.3 573.3 1139 579.5 L 1140 582 L 1147.5 585 Q 1153 583.5 1154.5 586 L 1171.5 586 L 1192.5 582 L 1204.5 577 Q 1206.8 577.8 1206 581.5 L 1202 587 L 1181.5 599 L 1163.5 606 L 1129.5 615 L 1123.5 615 L 1118.5 617 L 1094.5 621 L 1067.5 629 L 1065 624.5 L 1064 613.5 L 1065 613.5 L 1067.5 628 L 1070.5 626 L 1078.5 625 L 1081.5 623 Q 1091.1 622.6 1097.5 619 L 1103.5 619 L 1111.5 616 L 1118.5 616 L 1122.5 614 L 1133.5 613 L 1152.5 607 L 1156.5 607 L 1188.5 594 L 1204 582.5 L 1205 579.5 Q 1203.3 576.3 1201.5 580 L 1175.5 587 L 1151.5 587 L 1141.5 584 L 1138 580.5 Q 1136.5 571.5 1139.5 567 Z " /><path fill="rgb(212,212,212)" stroke="rgb(212,212,212)" stroke-width="1" opacity="1" d="M 1081.5 570 L 1085 570.5 L 1076.5 573 L 1077.5 571 L 1081.5 570 Z " /><path fill="rgb(212,212,212)" stroke="rgb(212,212,212)" stroke-width="1" opacity="1" d="M 744.5 571 L 745 574.5 L 743 585.5 L 743 601.5 L 744 602.5 L 745 613.5 L 744 613.5 L 742 604.5 L 742 581.5 Q 744.8 579.8 743 573.5 L 744.5 571 Z " /><path fill="rgb(212,212,212)" stroke="rgb(212,212,212)" stroke-width="1" opacity="1" d="M 755.5 571 L 756 575.5 L 755 576.5 L 755 585.5 L 753.5 589 L 753 581.5 L 755.5 571 Z " /><path fill="rgb(212,212,212)" stroke="rgb(212,212,212)" stroke-width="1" opacity="1" d="M 1072.5 573 L 1075 573.5 L 1071 575.5 Q 1074.1 578.4 1081 577.5 L 1071.5 578 Q 1067 576 1070.5 574 L 1072.5 573 Z " /><path fill="rgb(212,212,212)" stroke="rgb(212,212,212)" stroke-width="1" opacity="1" d="M 1215.5 575 L 1240 575.5 L 1230.5 576 L 1229.5 577 L 1215 577 L 1214 587 L 1212 586.5 Q 1215 583.5 1214 576.5 L 1215.5 575 Z " /><path fill="rgb(212,212,212)" stroke="rgb(212,212,212)" stroke-width="1" opacity="1" d="M 1156.5 576 L 1172 576.5 Q 1167.9 578.9 1160.5 578 L 1156.5 577 L 1156.5 576 Z " /><path fill="rgb(212,212,212)" stroke="rgb(212,212,212)" stroke-width="1" opacity="1" d="M 1034.5 577 L 1044 578.5 L 1026.5 579 L 1026.5 578 Q 1032.8 579.8 1034.5 577 Z " /><path fill="rgb(212,212,212)" stroke="rgb(212,212,212)" stroke-width="1" opacity="1" d="M 1082.5 578 L 1106 578.5 L 1097.5 585 L 1077.5 586 L 1076.5 587 L 1059.5 587 L 1053 588 Q 1052.9 582.4 1048.5 580 L 1047 579.5 L 1048.5 579 L 1052 581.5 L 1054 587 L 1065.5 585 L 1091.5 585 L 1098.5 583 L 1103 579.5 L 1082.5 579 L 1082.5 578 Z " /><path fill="rgb(212,212,212)" stroke="rgb(212,212,212)" stroke-width="1" opacity="1" d="M 1010.5 579 L 1023 579.5 L 991.5 582 L 991.5 581 L 994.5 580 L 1009.5 580 L 1010.5 579 Z " /><path fill="rgb(212,212,212)" stroke="rgb(212,212,212)" stroke-width="1" opacity="1" d="M 979.5 582 L 989 582.5 L 980.5 584 L 969.5 584 L 968.5 585 L 954.5 585 L 954.5 584 Q 959.3 585.2 960.5 583 L 978.5 583 L 979.5 582 Z " /><path fill="rgb(212,212,212)" stroke="rgb(212,212,212)" stroke-width="1" opacity="1" d="M 919 585 L 925.5 585 L 926.5 586 L 938.5 586 L 939.5 585 L 951.5 585 L 951.5 586 L 923 587.5 L 943.5 592 L 983.5 592 L 984.5 591 L 995 591 L 997 596.5 L 998 609.5 L 1001 622.5 L 1004 631.5 L 1006 633.5 L 1007 639.5 L 1014.5 651 Q 1017.3 651.6 1016 645.5 L 1014 642.5 L 1010 623.5 L 1008 619.5 L 1007 604.5 L 1004 590 L 1009.5 589 L 1019.5 589 L 1020.5 588 L 1041.5 588 Q 1046.5 591 1048 597.5 L 1053 617.5 L 1052 617.5 L 1047 597.5 L 1042.5 590 L 1040.5 589 L 1027.5 589 L 1026.5 590 L 1009.5 590 L 1006 591 L 1006 597.5 L 1009 609.5 L 1009 618.5 L 1012 625.5 L 1012 630.5 L 1018 651.5 L 1014 653 Q 1015.1 650.3 1012.5 651 L 1006 640.5 L 1005 634.5 L 999 620.5 L 999 615.5 L 996 605.5 L 996 597.5 L 993.5 592 L 989.5 593 L 940.5 593 Q 939 590.5 933.5 592 L 930.5 590 L 925.5 590 L 919 586.5 L 919 585 Z " /><path fill="rgb(212,212,212)" stroke="rgb(212,212,212)" stroke-width="1" opacity="1" d="M 1211.5 588 L 1211 589.5 L 1205.5 596 L 1184.5 608 L 1181.5 608 L 1176.5 611 L 1173.5 611 L 1168.5 614 L 1158.5 617 L 1154.5 617 L 1151.5 619 Q 1141.9 619.4 1135.5 623 L 1129.5 623 Q 1123.8 626.3 1114.5 626 L 1105.5 629 L 1100.5 629 Q 1094.1 632.6 1084.5 633 L 1080.5 635 L 1071.5 636 L 1071.5 635 L 1083.5 633 L 1099.5 628 L 1109.5 627 L 1113.5 625 L 1138.5 621 L 1170.5 612 L 1197.5 600 L 1211.5 588 Z " /><path fill="rgb(212,212,212)" stroke="rgb(212,212,212)" stroke-width="1" opacity="1" d="M 753.5 598 L 755 601.5 L 756 612.5 L 755 612.5 L 753 604.5 L 753.5 598 Z " /><path fill="rgb(212,212,212)" stroke="rgb(212,212,212)" stroke-width="1" opacity="1" d="M 1020.5 599 Q 1025.6 598.4 1027 601.5 L 1028 608.5 L 1027 611 Q 1024.9 612.6 1019.5 612 L 1016 610 L 1014 605.5 L 1017.5 600 L 1020.5 599 Z " /><path fill="rgb(212,212,212)" stroke="rgb(212,212,212)" stroke-width="1" opacity="1" d="M 1061.5 600 L 1063 602.5 L 1064 611.5 L 1063 611.5 L 1061.5 600 Z " /><path fill="rgb(212,212,212)" stroke="rgb(212,212,212)" stroke-width="1" opacity="1" d="M 756.5 614 L 759 620.5 L 758 620.5 Q 755 618 756.5 614 Z " /><path fill="rgb(212,212,212)" stroke="rgb(212,212,212)" stroke-width="1" opacity="1" d="M 745.5 615 Q 753.6 640.4 772.5 655 L 783 662.5 L 781.5 662 L 775 659 Q 776.1 656.3 773.5 657 L 761 645.5 L 752 633.5 L 746 621.5 L 745.5 615 Z " /><path fill="rgb(212,212,212)" stroke="rgb(212,212,212)" stroke-width="1" opacity="1" d="M 1053.5 619 L 1056 629.5 L 1055 629.5 L 1053.5 619 Z " /><path fill="rgb(212,212,212)" stroke="rgb(212,212,212)" stroke-width="1" opacity="1" d="M 759.5 622 L 762 626.5 L 760 625.5 L 759.5 622 Z " /><path fill="rgb(212,212,212)" stroke="rgb(212,212,212)" stroke-width="1" opacity="1" d="M 762.5 628 Q 764.8 627.3 764 629.5 L 774 643 Q 788.7 654.9 808 663.5 L 806.5 664 Q 785.5 655.5 771 640.5 L 769 637.5 L 763 630.5 L 762.5 628 Z " /><path fill="rgb(212,212,212)" stroke="rgb(212,212,212)" stroke-width="1" opacity="1" d="M 1056.5 631 L 1059 642.5 L 1058 642.5 L 1056 635.5 L 1056.5 631 Z " /><path fill="rgb(212,212,212)" stroke="rgb(212,212,212)" stroke-width="1" opacity="1" d="M 1067 636 L 1070 636.5 L 1068 637.5 L 1070 648.5 L 1069 648.5 L 1067 636 Z " /><path fill="rgb(212,212,212)" stroke="rgb(212,212,212)" stroke-width="1" opacity="1" d="M 1059.5 644 L 1062 659.5 L 1061 659.5 L 1059 649.5 L 1059.5 644 Z " /><path fill="rgb(212,212,212)" stroke="rgb(212,212,212)" stroke-width="1" opacity="1" d="M 1070.5 651 L 1072 652.5 L 1072 666.5 Q 1069 671.5 1061.5 672 L 1061.5 671 L 1067.5 669 L 1070 666.5 Q 1072.5 663 1071 655.5 L 1070.5 651 Z " /><path fill="rgb(212,212,212)" stroke="rgb(212,212,212)" stroke-width="1" opacity="1" d="M 1059.5 661 L 1062 661.5 L 1054.5 664 L 1055.5 662 L 1059.5 661 Z " /><path fill="rgb(212,212,212)" stroke="rgb(212,212,212)" stroke-width="1" opacity="1" d="M 784.5 663 Q 795.8 671 810 675 L 810 677.5 L 805.5 684 L 805 682.5 L 809 676.5 L 800.5 672 L 795.5 671 L 786.5 665 L 784 665 L 784.5 663 Z " /><path fill="rgb(212,212,212)" stroke="rgb(212,212,212)" stroke-width="1" opacity="1" d="M 809.5 664 Q 814.7 663.8 816.5 667 L 823.5 668 L 825 669.5 L 822.5 670 L 813.5 666 L 810.5 666 L 809.5 664 Z " /><path fill="rgb(212,212,212)" stroke="rgb(212,212,212)" stroke-width="1" opacity="1" d="M 1049.5 664 L 1053 664.5 L 1044.5 667 L 1045.5 665 L 1049.5 664 Z " /><path fill="rgb(212,212,212)" stroke="rgb(212,212,212)" stroke-width="1" opacity="1" d="M 1038.5 667 L 1043 667.5 L 1031.5 670 L 1031.5 669 L 1038.5 667 Z " /><path fill="rgb(212,212,212)" stroke="rgb(212,212,212)" stroke-width="1" opacity="1" d="M 826.5 670 L 834.5 671 L 836 672.5 L 833.5 673 L 826.5 671 L 826.5 670 Z " /><path fill="rgb(212,212,212)" stroke="rgb(212,212,212)" stroke-width="1" opacity="1" d="M 1024.5 670 L 1030 670.5 L 1026.5 672 L 1016.5 673 L 1016.5 672 L 1024.5 670 Z " /><path fill="rgb(212,212,212)" stroke="rgb(212,212,212)" stroke-width="1" opacity="1" d="M 1057.5 672 L 1060 672.5 L 1058.5 674 L 1051.5 675 L 1051.5 674 L 1057.5 672 Z " /><path fill="rgb(212,212,212)" stroke="rgb(212,212,212)" stroke-width="1" opacity="1" d="M 837.5 673 L 847.5 674 L 850 675.5 L 846.5 676 L 837.5 674 L 837.5 673 Z " /><path fill="rgb(212,212,212)" stroke="rgb(212,212,212)" stroke-width="1" opacity="1" d="M 1007.5 673 L 1015 673.5 L 997.5 676 L 997.5 675 L 1007.5 673 Z " /><path fill="rgb(212,212,212)" stroke="rgb(212,212,212)" stroke-width="1" opacity="1" d="M 1047.5 675 L 1050 675.5 L 1048.5 677 L 1040.5 678 L 1040.5 677 L 1047.5 675 Z " /><path fill="rgb(212,212,212)" stroke="rgb(212,212,212)" stroke-width="1" opacity="1" d="M 851.5 676 L 866.5 677 L 870 678.5 L 864.5 679 L 863.5 678 L 851.5 677 L 851.5 676 Z " /><path fill="rgb(212,212,212)" stroke="rgb(212,212,212)" stroke-width="1" opacity="1" d="M 986.5 676 L 995 676.5 L 972.5 679 L 972.5 678 Q 977.3 675.8 985.5 677 L 986.5 676 Z " /><path fill="rgb(212,212,212)" stroke="rgb(212,212,212)" stroke-width="1" opacity="1" d="M 1035.5 678 L 1039 678.5 L 1036.5 680 L 1028 681 L 1030 690.5 L 1031 713.5 L 1030 713.5 L 1030 702.5 L 1029 701.5 L 1028 686.5 L 1026 681.5 L 1035.5 678 Z " /><path fill="rgb(212,212,212)" stroke="rgb(212,212,212)" stroke-width="1" opacity="1" d="M 872.5 679 L 884.5 679 L 885.5 680 L 952.5 680 L 953.5 679 L 967.5 679 L 967.5 680 L 938.5 681 L 937.5 682 L 900.5 682 L 899.5 681 L 872.5 680 L 872.5 679 Z " /><path fill="rgb(212,212,212)" stroke="rgb(212,212,212)" stroke-width="1" opacity="1" d="M 803 685 Q 805.7 683.9 805 686.5 L 801 693.5 L 796.5 707 L 796 704.5 L 803 685 Z " /><path fill="rgb(212,212,212)" stroke="rgb(212,212,212)" stroke-width="1" opacity="1" d="M 795.5 708 L 796 710.5 L 793.5 717 L 793 714.5 L 795.5 708 Z " /><path fill="rgb(212,212,212)" stroke="rgb(212,212,212)" stroke-width="1" opacity="1" d="M 792.5 718 L 793 720.5 L 790.5 729 L 790 724.5 L 792.5 718 Z " /><path fill="rgb(212,212,212)" stroke="rgb(212,212,212)" stroke-width="1" opacity="1" d="M 789.5 730 L 790 733.5 L 787.5 742 L 787 737.5 Q 789.3 736.3 788 731.5 L 789.5 730 Z " /><path fill="rgb(212,212,212)" stroke="rgb(212,212,212)" stroke-width="1" opacity="1" d="M 1030.5 730 L 1031 745.5 L 1030 746.5 L 1030 769.5 L 1029 770.5 L 1028 792.5 L 1027 793.5 L 1027 811.5 L 1026 812.5 L 1025 832.5 L 1024 833.5 L 1024 851.5 L 1023 852.5 L 1023 862.5 L 1022 863.5 L 1022 873.5 L 1021 874.5 L 1021 893.5 L 1020 894.5 L 1020 904.5 L 1018 915.5 L 1018 934.5 L 1017 935.5 L 1017 945.5 L 1015 956.5 L 1015 977.5 L 1014 978.5 L 1014 1039.5 L 1015 1040.5 L 1015 1067.5 L 1016 1068.5 L 1017 1088.5 L 1018 1089.5 L 1018 1105.5 L 1021 1122.5 L 1021 1136.5 L 1024 1151.5 L 1024 1162.5 L 1027 1176.5 L 1027 1187.5 L 1030 1201.5 L 1031 1219.5 L 1033 1225.5 L 1034 1246.5 L 1033 1246.5 L 1031 1220.5 L 1030 1219.5 L 1028 1196.5 L 1025 1180.5 L 1025 1170.5 L 1022 1155.5 L 1022 1144.5 L 1020 1136.5 L 1019 1115.5 L 1018 1114.5 L 1017 1096.5 L 1016 1095.5 L 1016 1079.5 L 1015 1078.5 L 1014 1054.5 L 1013 1053.5 L 1013 967.5 L 1014 966.5 L 1014 956.5 L 1015 955.5 L 1015 945.5 L 1016 944.5 L 1016 927.5 L 1017 926.5 L 1017 914.5 L 1019 903.5 L 1019 885.5 L 1020 884.5 L 1020 873.5 L 1022 862.5 L 1022 844.5 L 1023 843.5 L 1023 832.5 L 1025 821.5 L 1025 804.5 L 1026 803.5 L 1026 791.5 L 1027 790.5 L 1027 780.5 L 1028 779.5 L 1028 759.5 L 1029 758.5 L 1030.5 730 Z " /><path fill="rgb(212,212,212)" stroke="rgb(212,212,212)" stroke-width="1" opacity="1" d="M 786.5 743 L 787 746.5 L 784.5 757 L 784 751.5 L 786.5 743 Z " /><path fill="rgb(212,212,212)" stroke="rgb(212,212,212)" stroke-width="1" opacity="1" d="M 783.5 758 L 784 762.5 L 781.5 773 L 781 767.5 L 783.5 758 Z " /><path fill="rgb(212,212,212)" stroke="rgb(212,212,212)" stroke-width="1" opacity="1" d="M 780.5 775 L 781 778.5 L 778.5 790 L 778 784.5 Q 780.8 782.8 779 776.5 L 780.5 775 Z " /><path fill="rgb(212,212,212)" stroke="rgb(212,212,212)" stroke-width="1" opacity="1" d="M 777.5 791 L 778 795.5 L 775.5 806 L 775 801.5 Q 777.8 799.8 776 793.5 L 777.5 791 Z " /><path fill="rgb(212,212,212)" stroke="rgb(212,212,212)" stroke-width="1" opacity="1" d="M 774.5 808 L 775 811.5 L 772.5 823 L 772 817.5 L 774.5 808 Z " /><path fill="rgb(212,212,212)" stroke="rgb(212,212,212)" stroke-width="1" opacity="1" d="M 771.5 825 L 772 828.5 L 769.5 839 L 769 833.5 Q 771.5 832 770 826.5 L 771.5 825 Z " /><path fill="rgb(212,212,212)" stroke="rgb(212,212,212)" stroke-width="1" opacity="1" d="M 768.5 840 L 769 843.5 L 766.5 853 L 766 848.5 L 768.5 840 Z " /><path fill="rgb(212,212,212)" stroke="rgb(212,212,212)" stroke-width="1" opacity="1" d="M 924.5 853 L 927 854.5 L 928 862.5 L 927 863.5 L 926.5 876 L 926 855 L 922 856.5 L 921 865 Q 918.3 866.1 919 863.5 Q 921.3 862.3 920 857.5 L 922.5 854 L 924.5 853 Z " /><path fill="rgb(212,212,212)" stroke="rgb(212,212,212)" stroke-width="1" opacity="1" d="M 765.5 854 L 766 857.5 L 763.5 866 L 763 861.5 L 765.5 854 Z " /><path fill="rgb(212,212,212)" stroke="rgb(212,212,212)" stroke-width="1" opacity="1" d="M 762.5 867 L 763 869.5 L 760.5 878 L 760 873.5 L 762.5 867 Z " /><path fill="rgb(212,212,212)" stroke="rgb(212,212,212)" stroke-width="1" opacity="1" d="M 918.5 869 L 919 874.5 L 916.5 886 L 916 880.5 L 918.5 869 Z " /><path fill="rgb(212,212,212)" stroke="rgb(212,212,212)" stroke-width="1" opacity="1" d="M 759.5 879 L 760 880.5 L 754.5 896 L 754 893.5 L 759.5 879 Z " /><path fill="rgb(212,212,212)" stroke="rgb(212,212,212)" stroke-width="1" opacity="1" d="M 925.5 881 L 926 889.5 L 925 890.5 L 925 902.5 L 923.5 911 L 923 899.5 L 924 898.5 L 924 885.5 L 925.5 881 Z " /><path fill="rgb(212,212,212)" stroke="rgb(212,212,212)" stroke-width="1" opacity="1" d="M 915.5 888 L 916 895.5 L 915 896.5 L 915 905.5 L 913.5 907 L 913 902.5 L 915.5 888 Z " /><path fill="rgb(212,212,212)" stroke="rgb(212,212,212)" stroke-width="1" opacity="1" d="M 753.5 897 L 754 898.5 L 746 913.5 L 739.5 920 L 724.5 925 L 710.5 926 L 702.5 928 L 692.5 928 L 691.5 929 L 667.5 929 L 666.5 930 L 642.5 930 L 641.5 931 L 609.5 931 L 608.5 932 L 581.5 932 L 566.5 935 L 562 939.5 L 557 955.5 L 556 966 L 545.5 964 L 512.5 964 Q 511.3 966.2 506.5 965 L 497.5 969 L 490 976.5 L 482.5 992 L 482 990.5 L 489 977.5 L 489 975 Q 491.7 976.1 491 973.5 Q 497.4 965.4 509.5 963 L 548.5 963 L 555 965 L 556 953.5 L 558 950.5 L 559 942.5 L 564.5 935 L 568.5 933 L 574.5 933 L 580.5 931 L 589.5 931 L 590.5 930 L 640.5 930 L 641.5 929 L 665.5 929 L 666.5 928 L 682.5 928 L 683.5 927 L 701.5 927 L 716.5 924 L 723.5 924 Q 727.5 921 734.5 921 L 742 917 L 743.5 914 Q 745.8 914.8 745 912.5 L 753.5 897 Z " /><path fill="rgb(212,212,212)" stroke="rgb(212,212,212)" stroke-width="1" opacity="1" d="M 912.5 910 L 913 917.5 L 912 918.5 L 912 926.5 L 910.5 929 L 910 923.5 L 912.5 910 Z " /><path fill="rgb(212,212,212)" stroke="rgb(212,212,212)" stroke-width="1" opacity="1" d="M 922.5 914 L 923 919.5 L 922 920.5 L 922 930.5 L 920.5 937 L 920 928.5 L 921 927.5 L 921 917.5 L 922.5 914 Z " /><path fill="rgb(212,212,212)" stroke="rgb(212,212,212)" stroke-width="1" opacity="1" d="M 909.5 931 L 910 937.5 L 907.5 949 L 907 944.5 L 909.5 931 Z " /><path fill="rgb(212,212,212)" stroke="rgb(212,212,212)" stroke-width="1" opacity="1" d="M 919.5 940 L 920 944.5 L 917.5 958 L 917 951.5 L 918 950.5 L 918 942.5 L 919.5 940 Z " /><path fill="rgb(212,212,212)" stroke="rgb(212,212,212)" stroke-width="1" opacity="1" d="M 906.5 951 L 907 956.5 Q 904.3 958.3 906 964.5 L 904.5 967 L 904 962.5 L 906.5 951 Z " /><path fill="rgb(212,212,212)" stroke="rgb(212,212,212)" stroke-width="1" opacity="1" d="M 916.5 959 L 917 962.5 L 911.5 986 L 911 980.5 L 916.5 959 Z " /><path fill="rgb(212,212,212)" stroke="rgb(212,212,212)" stroke-width="1" opacity="1" d="M 903.5 968 L 904 973.5 Q 901.5 975 903 980.5 L 901.5 982 L 901 978.5 L 903.5 968 Z " /><path fill="rgb(212,212,212)" stroke="rgb(212,212,212)" stroke-width="1" opacity="1" d="M 515.5 973 L 539 973.5 L 515.5 974 L 515.5 973 Z " /><path fill="rgb(212,212,212)" stroke="rgb(212,212,212)" stroke-width="1" opacity="1" d="M 509.5 974 L 513 974.5 L 504.5 977 L 499 982.5 L 498 986 Q 495 984.8 496 988.5 L 490 1000.5 L 489 1007.5 L 487 1009.5 L 486 1016.5 L 484.5 1018 L 484 1015.5 L 494 988.5 L 502.5 977 L 509.5 974 Z " /><path fill="rgb(212,212,212)" stroke="rgb(212,212,212)" stroke-width="1" opacity="1" d="M 543.5 974 L 548 976.5 Q 552.9 984.1 551 998.5 L 550 999.5 L 547 1033.5 L 545 1042.5 L 544 1087.5 L 547.5 1093 L 554.5 1095 L 574.5 1095 L 575.5 1096 L 595.5 1096 L 596.5 1097 L 675.5 1097 L 676.5 1096 L 715.5 1095 L 716.5 1094 L 725.5 1094 L 735.5 1092 L 747.5 1092 L 748.5 1091 L 769.5 1089 L 780.5 1086 L 787.5 1086 Q 792.9 1082.9 801.5 1083 L 805.5 1081 L 823.5 1077 L 847.5 1068 Q 863.4 1060.9 875 1049.5 L 885.5 1034 L 886 1035.5 Q 879.8 1047.8 869.5 1056 L 854.5 1066 L 833.5 1075 L 798.5 1085 L 792.5 1085 L 788.5 1087 L 775.5 1088 L 764.5 1091 L 754.5 1091 L 740.5 1094 L 726.5 1094 L 725.5 1095 L 706.5 1096 L 705.5 1097 L 677.5 1097 L 676.5 1098 L 596.5 1098 L 595.5 1097 L 563.5 1097 L 562.5 1096 L 553.5 1096 L 545 1092.5 L 543 1088.5 L 543 1050.5 L 546 1033.5 L 547 1012.5 L 549 1007.5 Q 547.4 995.4 550 987.5 Q 547.5 986 549 980.5 L 545.5 976 L 543.5 974 Z " /><path fill="rgb(212,212,212)" stroke="rgb(212,212,212)" stroke-width="1" opacity="1" d="M 900.5 984 L 901 988.5 L 898.5 996 L 898 992.5 L 900.5 984 Z " /><path fill="rgb(212,212,212)" stroke="rgb(212,212,212)" stroke-width="1" opacity="1" d="M 910.5 987 L 911 989.5 L 908.5 999 L 908 994.5 L 910.5 987 Z " /><path fill="rgb(212,212,212)" stroke="rgb(212,212,212)" stroke-width="1" opacity="1" d="M 481.5 993 L 482 994.5 L 479.5 1000 L 479 997.5 L 481.5 993 Z " /><path fill="rgb(212,212,212)" stroke="rgb(212,212,212)" stroke-width="1" opacity="1" d="M 897.5 997 L 898 1000.5 L 895.5 1007 L 895 1004.5 L 897.5 997 Z " /><path fill="rgb(212,212,212)" stroke="rgb(212,212,212)" stroke-width="1" opacity="1" d="M 907.5 1000 L 908 1003.5 L 902.5 1022 L 902 1018.5 L 905 1011.5 L 906 1002.5 L 907.5 1000 Z " /><path fill="rgb(212,212,212)" stroke="rgb(212,212,212)" stroke-width="1" opacity="1" d="M 478.5 1001 L 479 1003.5 L 473.5 1021 L 473 1017.5 L 477 1002.5 L 478.5 1001 Z " /><path fill="rgb(212,212,212)" stroke="rgb(212,212,212)" stroke-width="1" opacity="1" d="M 894.5 1008 L 895 1011.5 L 889.5 1026 L 889 1024.5 L 894.5 1008 Z " /><path fill="rgb(212,212,212)" stroke="rgb(212,212,212)" stroke-width="1" opacity="1" d="M 518 1016 L 521 1017.5 L 522 1019.5 L 522 1032.5 L 516 1051.5 L 501 1079 Q 498.3 1077.9 499 1080.5 L 496 1085 L 487.5 1091 L 477.5 1092 L 470 1086.5 L 468 1083.5 L 467 1074.5 L 468 1074.5 L 470 1084.5 L 473 1089 Q 475.9 1091.9 483.5 1091 Q 492.4 1088.4 497 1081.5 L 505 1070.5 L 515 1050.5 L 521 1031.5 L 521 1021.5 L 520 1018 Q 517.3 1016.9 518 1019.5 L 512.5 1032 L 512 1030.5 L 518 1016 Z " /><path fill="rgb(212,212,212)" stroke="rgb(212,212,212)" stroke-width="1" opacity="1" d="M 483.5 1019 L 484 1022.5 L 481 1030.5 L 480 1042.5 L 478.5 1045 L 478 1040.5 L 483.5 1019 Z " /><path fill="rgb(212,212,212)" stroke="rgb(212,212,212)" stroke-width="1" opacity="1" d="M 472.5 1022 L 473 1024.5 L 470.5 1034 L 470 1029.5 Q 472.3 1028.2 471 1023.5 L 472.5 1022 Z " /><path fill="rgb(212,212,212)" stroke="rgb(212,212,212)" stroke-width="1" opacity="1" d="M 901.5 1023 L 902 1024.5 L 895 1043.5 L 889 1053 L 886 1054.5 Q 886.8 1056.8 884.5 1056 L 883 1059 L 860.5 1076 L 829 1092 L 826.5 1098 L 826 1096.5 L 829 1090 L 832.5 1090 L 835.5 1087 L 856.5 1077 L 878 1062 Q 876.9 1059.3 879.5 1060 Q 888.1 1054.1 893 1044.5 L 901.5 1023 Z " /><path fill="rgb(212,212,212)" stroke="rgb(212,212,212)" stroke-width="1" opacity="1" d="M 888.5 1027 L 889 1028.5 L 886.5 1033 L 886 1031.5 L 888.5 1027 Z " /><path fill="rgb(212,212,212)" stroke="rgb(212,212,212)" stroke-width="1" opacity="1" d="M 511.5 1033 L 512 1035.5 L 499 1064.5 L 486.5 1080 L 480.5 1083 L 478.5 1080 L 482.5 1081 L 488 1078 L 500 1060.5 L 511.5 1033 Z " /><path fill="rgb(212,212,212)" stroke="rgb(212,212,212)" stroke-width="1" opacity="1" d="M 469.5 1036 L 470 1039.5 L 469 1040.5 L 467.5 1055 L 467 1045.5 L 469.5 1036 Z " /><path fill="rgb(212,212,212)" stroke="rgb(212,212,212)" stroke-width="1" opacity="1" d="M 477.5 1047 L 478 1055.5 L 477 1056.5 L 477 1073.5 L 478 1078.5 L 477 1078.5 L 476 1076.5 L 476 1052.5 L 477.5 1047 Z " /><path fill="rgb(212,212,212)" stroke="rgb(212,212,212)" stroke-width="1" opacity="1" d="M 466.5 1059 L 467 1070.5 L 466 1070.5 L 466.5 1059 Z " /><path fill="rgb(212,212,212)" stroke="rgb(212,212,212)" stroke-width="1" opacity="1" d="M 825.5 1099 L 826 1101.5 L 823.5 1114 L 823 1107.5 L 825.5 1099 Z " /><path fill="rgb(212,212,212)" stroke="rgb(212,212,212)" stroke-width="1" opacity="1" d="M 822.5 1116 L 823 1128.5 L 822 1129.5 L 822 1235.5 L 823 1236.5 L 823 1254.5 L 822 1254.5 Q 823.5 1249 821 1247.5 L 821 1212.5 L 820 1211.5 L 820 1149.5 L 821 1148.5 L 821 1120.5 L 822.5 1116 Z " /><path fill="rgb(212,212,212)" stroke="rgb(212,212,212)" stroke-width="1" opacity="1" d="M 1034.5 1248 Q 1037.9 1258.6 1036 1274.5 L 1033 1281 L 1025.5 1285 L 1026.5 1283 L 1032 1279.5 L 1034 1276.5 L 1034.5 1248 Z " /><path fill="rgb(212,212,212)" stroke="rgb(212,212,212)" stroke-width="1" opacity="1" d="M 315.5 1250 L 344.5 1251 L 354.5 1253 L 372.5 1253 L 377 1255.5 Q 378 1260 375.5 1261 L 369.5 1263 L 320.5 1266 L 315.5 1265 L 314.5 1266 L 263.5 1266 L 262.5 1265 L 232.5 1265 L 231.5 1264 L 192.5 1263 L 187.5 1261 L 177 1260 L 177 1256 L 183.5 1256 L 184.5 1255 L 205.5 1254 L 206.5 1253 L 271.5 1252 L 272.5 1253 L 285.5 1253 L 286.5 1252 L 314.5 1251 L 315.5 1250 Z M 300 1252 L 299 1253 L 287 1253 L 286 1254 L 272 1254 L 271 1253 L 213 1254 L 212 1255 L 185 1256 L 184 1257 Q 178 1255 179 1259 L 189 1261 L 198 1261 L 199 1262 L 232 1263 L 233 1264 L 345 1264 L 346 1263 L 358 1263 L 367 1261 L 374 1261 L 375 1260 Q 377 1261 376 1257 L 375 1255 Q 370 1256 369 1254 L 355 1254 L 344 1252 L 300 1252 Z " /><path fill="rgb(212,212,212)" stroke="rgb(212,212,212)" stroke-width="1" opacity="1" d="M 823.5 1256 L 826 1280.5 L 829 1288.5 L 831.5 1291 L 839 1293.5 L 835.5 1294 Q 829.4 1292.6 827 1287.5 L 824 1277.5 L 823.5 1256 Z " /><path fill="rgb(212,212,212)" stroke="rgb(212,212,212)" stroke-width="1" opacity="1" d="M 1022.5 1285 L 1024 1285.5 L 1015.5 1290 L 1007.5 1291 L 1007.5 1290 Q 1016.6 1289.1 1022.5 1285 Z " /><path fill="rgb(212,212,212)" stroke="rgb(212,212,212)" stroke-width="1" opacity="1" d="M 231.5 1286 L 271.5 1287 L 274 1288.5 L 264.5 1289 L 263.5 1288 L 217.5 1288 L 216.5 1289 L 189.5 1289 L 188.5 1288 L 180.5 1288 L 179.5 1289 L 152.5 1289 L 152.5 1288 L 165.5 1288 L 166.5 1287 L 230.5 1287 L 231.5 1286 Z " /><path fill="rgb(212,212,212)" stroke="rgb(212,212,212)" stroke-width="1" opacity="1" d="M 131.5 1289 L 142 1289.5 L 117.5 1292 L 117.5 1291 L 130.5 1290 L 131.5 1289 Z " /><path fill="rgb(212,212,212)" stroke="rgb(212,212,212)" stroke-width="1" opacity="1" d="M 275.5 1289 L 293.5 1289 L 296 1291.5 Q 296.8 1295.3 294.5 1296 L 287.5 1297 L 287.5 1296 Q 293 1296.5 295 1293.5 L 293.5 1291 L 291.5 1290 L 275.5 1290 L 275.5 1289 Z " /><path fill="rgb(212,212,212)" stroke="rgb(212,212,212)" stroke-width="1" opacity="1" d="M 1002.5 1291 L 1006 1291.5 L 1003.5 1293 L 992.5 1294 L 992.5 1293 L 1002.5 1291 Z " /><path fill="rgb(212,212,212)" stroke="rgb(212,212,212)" stroke-width="1" opacity="1" d="M 109.5 1292 L 116 1292.5 L 105 1294 Q 103.9 1296.7 106.5 1296 L 106.5 1297 L 103 1295.5 L 104.5 1293 L 109.5 1292 Z " /><path fill="rgb(212,212,212)" stroke="rgb(212,212,212)" stroke-width="1" opacity="1" d="M 840.5 1294 L 856.5 1296 L 858 1297.5 L 856 1305.5 L 856 1320.5 L 859 1335.5 Q 861.8 1344.2 868.5 1349 L 874.5 1352 L 894 1357.5 L 874.5 1358 L 874.5 1357 L 881 1355.5 L 869.5 1351 L 864 1346.5 L 857 1332.5 L 855 1322.5 L 855 1303.5 L 857 1297.5 L 842.5 1296 L 840.5 1294 Z " /><path fill="rgb(212,212,212)" stroke="rgb(212,212,212)" stroke-width="1" opacity="1" d="M 985.5 1294 L 990 1294.5 L 987.5 1296 L 969.5 1297 L 969.5 1296 L 984.5 1295 L 985.5 1294 Z " /><path fill="rgb(212,212,212)" stroke="rgb(212,212,212)" stroke-width="1" opacity="1" d="M 111.5 1297 Q 116.2 1295.7 117.5 1298 L 160.5 1298 L 161.5 1299 L 200 1299.5 L 130.5 1300 L 129.5 1299 L 114.5 1299 L 111.5 1298 L 111.5 1297 Z " /><path fill="rgb(212,212,212)" stroke="rgb(212,212,212)" stroke-width="1" opacity="1" d="M 280.5 1297 L 285 1297.5 L 282.5 1299 L 270.5 1299 L 269.5 1300 L 244.5 1300 L 244.5 1299 L 261.5 1299 L 262.5 1298 L 279.5 1298 L 280.5 1297 Z " /><path fill="rgb(212,212,212)" stroke="rgb(212,212,212)" stroke-width="1" opacity="1" d="M 955.5 1297 L 965 1297.5 L 962.5 1299 L 912.5 1300 L 912.5 1299 L 933.5 1299 L 934.5 1298 L 954.5 1298 L 955.5 1297 Z " /><path fill="rgb(212,212,212)" stroke="rgb(212,212,212)" stroke-width="1" opacity="1" d="M 234.5 1299 L 241 1299.5 L 234.5 1300 L 234.5 1299 Z " /><path fill="rgb(212,212,212)" stroke="rgb(212,212,212)" stroke-width="1" opacity="1" d="M 204.5 1300 L 223 1300.5 L 204.5 1301 L 204.5 1300 Z " /><path fill="rgb(212,212,212)" stroke="rgb(212,212,212)" stroke-width="1" opacity="1" d="M 905.5 1300 L 910 1300.5 L 907.5 1302 L 874.5 1303 L 874.5 1302 L 879.5 1301 L 904.5 1301 L 905.5 1300 Z " /><path fill="rgb(212,212,212)" stroke="rgb(212,212,212)" stroke-width="1" opacity="1" d="M 871.5 1303 Q 874.1 1302.3 873 1305 L 869 1307.5 L 867 1314.5 L 868 1315.5 L 868 1324.5 L 870 1332.5 L 875.5 1340 L 882 1342.5 L 880.5 1343 Q 874 1341.5 871 1336.5 L 868 1330.5 L 866 1311.5 L 868 1306.5 L 871.5 1303 Z " /><path fill="rgb(212,212,212)" stroke="rgb(212,212,212)" stroke-width="1" opacity="1" d="M 935.5 1313 L 951.5 1314 L 953 1315.5 L 949.5 1316 L 948.5 1315 L 931.5 1315 L 929.5 1316 L 930.5 1314 L 935.5 1313 Z " /><path fill="rgb(212,212,212)" stroke="rgb(212,212,212)" stroke-width="1" opacity="1" d="M 926.5 1316 L 928 1316.5 L 925 1318 L 926 1320.5 L 924 1321 L 924 1317 L 925.5 1317 L 926.5 1316 Z " /><path fill="rgb(212,212,212)" stroke="rgb(212,212,212)" stroke-width="1" opacity="1" d="M 955.5 1316 L 965.5 1317 L 967 1318.5 L 964.5 1319 L 955.5 1317 L 955.5 1316 Z " /><path fill="rgb(212,212,212)" stroke="rgb(212,212,212)" stroke-width="1" opacity="1" d="M 270.5 1319 L 296.5 1320 L 300 1321.5 L 291.5 1322 L 290.5 1321 L 255.5 1321 L 254.5 1322 L 204.5 1322 L 204.5 1321 L 234.5 1320 L 235.5 1321 L 249.5 1321 L 250.5 1320 L 269.5 1320 L 270.5 1319 Z " /><path fill="rgb(212,212,212)" stroke="rgb(212,212,212)" stroke-width="1" opacity="1" d="M 482 1319 L 486 1319 L 486 1320.5 Q 493.7 1330 505 1335 Q 503.9 1337.7 506.5 1337 L 509 1338 Q 507.9 1340.7 510.5 1340 L 519 1345.5 L 517.5 1346 L 491.5 1328 L 485 1321.5 L 484.5 1320 L 483 1322.5 L 488 1335.5 L 502.5 1352 Q 508.4 1357.6 518 1359.5 L 514.5 1360 L 507.5 1357 L 498 1350 L 496.5 1347 Q 494.3 1347.8 495 1345.5 L 489 1339.5 L 483 1328.5 L 482 1319 Z " /><path fill="rgb(212,212,212)" stroke="rgb(212,212,212)" stroke-width="1" opacity="1" d="M 968.5 1319 L 974.5 1320 L 976 1321.5 L 974.5 1322 L 968.5 1320 L 968.5 1319 Z " /><path fill="rgb(212,212,212)" stroke="rgb(212,212,212)" stroke-width="1" opacity="1" d="M 1190.5 1319 Q 1195.9 1317.1 1195 1320.5 L 1195 1322.5 L 1193 1330.5 L 1190 1336 Q 1187.3 1334.9 1188 1337.5 L 1183 1344 L 1176 1348 Q 1177.1 1350.7 1174.5 1350 L 1165.5 1356 L 1161.5 1357 L 1162.5 1355 Q 1177.1 1349.6 1186 1338.5 Q 1193.1 1331.8 1194 1320 L 1186.5 1322 L 1168.5 1338 L 1152.5 1346 L 1153.5 1344 L 1158.5 1343 L 1176 1331 L 1177.5 1328 Q 1179.8 1328.8 1179 1326.5 L 1190.5 1319 Z " /><path fill="rgb(212,212,212)" stroke="rgb(212,212,212)" stroke-width="1" opacity="1" d="M 927.5 1321 L 943 1323.5 L 935.5 1324 Q 934 1321.5 928.5 1323 L 927.5 1321 Z " /><path fill="rgb(212,212,212)" stroke="rgb(212,212,212)" stroke-width="1" opacity="1" d="M 183.5 1322 L 196 1322.5 L 169.5 1325 L 169.5 1324 L 171.5 1323 L 182.5 1323 L 183.5 1322 Z " /><path fill="rgb(212,212,212)" stroke="rgb(212,212,212)" stroke-width="1" opacity="1" d="M 301.5 1322 Q 313.1 1319.9 318 1324.5 Q 319 1329 316.5 1330 L 312 1329.5 L 317 1327.5 L 315.5 1324 L 301.5 1323 L 301.5 1322 Z " /><path fill="rgb(212,212,212)" stroke="rgb(212,212,212)" stroke-width="1" opacity="1" d="M 977.5 1322 L 981.5 1323 L 991 1329 L 996 1336.5 L 997 1343.5 L 992.5 1351 L 986 1354.5 L 1010 1355.5 L 983.5 1356 L 984.5 1354 Q 991 1352.5 994 1347.5 L 996 1342.5 L 994 1335.5 L 988.5 1329 L 978.5 1324 L 977.5 1322 Z " /><path fill="rgb(212,212,212)" stroke="rgb(212,212,212)" stroke-width="1" opacity="1" d="M 946.5 1324 L 956.5 1325 L 960 1326.5 L 956.5 1327 Q 954.8 1324.2 948.5 1326 L 946.5 1324 Z " /><path fill="rgb(212,212,212)" stroke="rgb(212,212,212)" stroke-width="1" opacity="1" d="M 164.5 1325 L 167 1325.5 L 163 1327.5 L 168 1329.5 L 164.5 1330 L 162 1329 Q 160.5 1325.3 163.5 1326 L 164.5 1325 Z " /><path fill="rgb(212,212,212)" stroke="rgb(212,212,212)" stroke-width="1" opacity="1" d="M 962.5 1327 Q 976.6 1329.7 985 1337 L 986 1343 L 977.5 1346 L 978.5 1344 Q 983.6 1344.6 985 1341.5 Q 985.5 1336.5 981.5 1336 L 970.5 1330 L 963.5 1329 L 962.5 1327 Z " /><path fill="rgb(212,212,212)" stroke="rgb(212,212,212)" stroke-width="1" opacity="1" d="M 171.5 1330 L 176.5 1331 L 210.5 1331 L 211.5 1332 L 244 1332.5 L 195.5 1333 L 194.5 1332 L 172.5 1332 L 171.5 1330 Z " /><path fill="rgb(212,212,212)" stroke="rgb(212,212,212)" stroke-width="1" opacity="1" d="M 306.5 1330 L 310 1330.5 L 308.5 1332 L 299.5 1332 L 298.5 1333 L 260.5 1333 L 260.5 1332 L 289.5 1332 L 290.5 1331 L 305.5 1331 L 306.5 1330 Z " /><path fill="rgb(212,212,212)" stroke="rgb(212,212,212)" stroke-width="1" opacity="1" d="M 883.5 1343 L 892.5 1344 L 894 1345.5 L 890.5 1346 L 883.5 1344 L 883.5 1343 Z " /><path fill="rgb(212,212,212)" stroke="rgb(212,212,212)" stroke-width="1" opacity="1" d="M 520.5 1346 L 530.5 1347 L 533 1348.5 L 528.5 1349 L 520.5 1347 L 520.5 1346 Z " /><path fill="rgb(212,212,212)" stroke="rgb(212,212,212)" stroke-width="1" opacity="1" d="M 896.5 1346 L 911.5 1347 L 913 1348.5 L 909.5 1349 L 908.5 1348 L 896.5 1347 L 896.5 1346 Z " /><path fill="rgb(212,212,212)" stroke="rgb(212,212,212)" stroke-width="1" opacity="1" d="M 971.5 1346 L 976 1346.5 L 972.5 1348 L 960.5 1349 L 960.5 1348 L 971.5 1346 Z " /><path fill="rgb(212,212,212)" stroke="rgb(212,212,212)" stroke-width="1" opacity="1" d="M 1146.5 1346 L 1151 1346.5 L 1147.5 1348 L 1131.5 1349 L 1131.5 1348 L 1145.5 1347 L 1146.5 1346 Z " /><path fill="rgb(212,212,212)" stroke="rgb(212,212,212)" stroke-width="1" opacity="1" d="M 535.5 1349 L 557.5 1350 L 560 1351.5 L 551.5 1352 L 550.5 1351 L 535.5 1350 L 535.5 1349 Z " /><path fill="rgb(212,212,212)" stroke="rgb(212,212,212)" stroke-width="1" opacity="1" d="M 917.5 1349 L 957 1349.5 L 948.5 1351 L 928.5 1351 L 927.5 1350 L 917.5 1350 L 917.5 1349 Z " /><path fill="rgb(212,212,212)" stroke="rgb(212,212,212)" stroke-width="1" opacity="1" d="M 1113.5 1349 L 1127 1349.5 L 1118.5 1350 L 1117.5 1351 L 1092.5 1352 L 1093.5 1350 L 1112.5 1350 L 1113.5 1349 Z " /><path fill="rgb(212,212,212)" stroke="rgb(212,212,212)" stroke-width="1" opacity="1" d="M 564.5 1352 L 603.5 1353 L 607 1354.5 L 592.5 1355 L 591.5 1354 L 564.5 1353 L 564.5 1352 Z " /><path fill="rgb(212,212,212)" stroke="rgb(212,212,212)" stroke-width="1" opacity="1" d="M 1064.5 1352 L 1086 1352.5 L 1072.5 1353 L 1071.5 1354 L 1023.5 1355 L 1024.5 1353 L 1063.5 1353 L 1064.5 1352 Z " /><path fill="rgb(212,212,212)" stroke="rgb(212,212,212)" stroke-width="1" opacity="1" d="M 614.5 1355 L 675.5 1356 L 678 1357.5 L 659.5 1358 L 658.5 1357 L 614.5 1356 L 614.5 1355 Z " /><path fill="rgb(212,212,212)" stroke="rgb(212,212,212)" stroke-width="1" opacity="1" d="M 1158.5 1357 L 1160 1357.5 L 1158.5 1359 L 1150.5 1360 L 1150.5 1359 L 1158.5 1357 Z " /><path fill="rgb(212,212,212)" stroke="rgb(212,212,212)" stroke-width="1" opacity="1" d="M 689.5 1358 L 834 1358.5 L 689.5 1359 L 689.5 1358 Z " /><path fill="rgb(212,212,212)" stroke="rgb(212,212,212)" stroke-width="1" opacity="1" d="M 519.5 1360 L 535 1362.5 L 527.5 1363 Q 526 1360.5 520.5 1362 L 519.5 1360 Z " /><path fill="rgb(212,212,212)" stroke="rgb(212,212,212)" stroke-width="1" opacity="1" d="M 1144.5 1360 L 1149 1360.5 L 1146.5 1362 L 1137.5 1362 L 1136.5 1363 L 1121.5 1363 L 1121.5 1362 L 1143.5 1361 L 1144.5 1360 Z " /><path fill="rgb(212,212,212)" stroke="rgb(212,212,212)" stroke-width="1" opacity="1" d="M 537.5 1363 L 558.5 1364 L 559.5 1365 L 575.5 1365 L 576.5 1366 L 590.5 1366 L 591.5 1367 L 649 1368.5 L 610.5 1369 L 609.5 1368 L 584.5 1368 L 575.5 1366 L 541.5 1365 L 537.5 1364 L 537.5 1363 Z " /><path fill="rgb(212,212,212)" stroke="rgb(212,212,212)" stroke-width="1" opacity="1" d="M 1107.5 1363 L 1118 1363.5 L 1112.5 1365 L 1094.5 1365 L 1093.5 1366 L 1066.5 1366 L 1066.5 1365 L 1086.5 1365 L 1087.5 1364 L 1106.5 1364 L 1107.5 1363 Z " /><path fill="rgb(212,212,212)" stroke="rgb(212,212,212)" stroke-width="1" opacity="1" d="M 1046.5 1366 L 1064 1366.5 L 1055.5 1367 L 1054.5 1368 L 1025.5 1368 L 1024.5 1369 L 974.5 1369 L 974.5 1368 L 1012.5 1368 L 1013.5 1367 L 1045.5 1367 L 1046.5 1366 Z " /><path fill="rgb(212,212,212)" stroke="rgb(212,212,212)" stroke-width="1" opacity="1" d="M 650.5 1369 L 786.5 1371 L 787.5 1370 L 939.5 1370 L 940.5 1369 L 972.5 1369 L 972.5 1370 L 957.5 1370 L 956.5 1371 L 852.5 1371 L 851.5 1372 L 717.5 1372 L 716.5 1371 L 663.5 1371 L 662.5 1370 L 650.5 1370 L 650.5 1369 Z " /><path fill="rgb(212,212,212)" stroke="rgb(212,212,212)" stroke-width="1" opacity="1" d="M 610.5 1374 L 627.5 1374 L 630 1375.5 L 625.5 1376 L 624.5 1375 L 613.5 1375 Q 595.5 1378 587 1390.5 Q 580.8 1398.3 578 1409.5 L 577 1421.5 L 581 1435.5 L 587 1445 L 589 1445.5 L 557.5 1446 L 557.5 1445 L 559.5 1444 L 583.5 1444 L 585 1444.5 L 577 1428.5 L 576 1413.5 L 580 1399.5 L 592.5 1383 L 610.5 1374 Z " /><path fill="rgb(212,212,212)" stroke="rgb(212,212,212)" stroke-width="1" opacity="1" d="M 1044.5 1374 L 1060.5 1374 L 1063 1375.5 L 1058.5 1376 L 1057.5 1375 L 1047.5 1375 L 1042.5 1376 L 1042.5 1375 L 1044.5 1374 Z " /><path fill="rgb(212,212,212)" stroke="rgb(212,212,212)" stroke-width="1" opacity="1" d="M 631.5 1376 L 642.5 1380 L 656 1392.5 L 664 1408.5 L 665 1423.5 L 662.5 1430 L 662 1428.5 L 664 1417.5 Q 661.2 1415.8 663 1409.5 L 660 1401.5 L 649.5 1387 L 646.5 1385 Q 641.4 1378.6 631.5 1377 L 631.5 1376 Z " /><path fill="rgb(212,212,212)" stroke="rgb(212,212,212)" stroke-width="1" opacity="1" d="M 1038.5 1376 L 1041 1376.5 Q 1028.9 1379.9 1022 1388.5 L 1013 1404.5 L 1011 1413.5 L 1011 1423.5 Q 1014.6 1437.4 1024 1445.5 L 1021.5 1444 Q 1019.3 1444.8 1020 1442.5 L 1014 1435.5 L 1011 1428.5 L 1010 1412.5 Q 1013.8 1392.3 1027.5 1382 Q 1030.1 1382.7 1029 1380 L 1031.5 1380 L 1038.5 1376 Z " /><path fill="rgb(212,212,212)" stroke="rgb(212,212,212)" stroke-width="1" opacity="1" d="M 1064.5 1376 Q 1080 1379.5 1088 1390.5 L 1096 1403.5 L 1097 1410.5 L 1096 1410.5 Q 1092.4 1392.6 1079.5 1384 Q 1073.8 1378.7 1064.5 1377 L 1064.5 1376 Z " /><path fill="rgb(212,212,212)" stroke="rgb(212,212,212)" stroke-width="1" opacity="1" d="M 612.5 1385 Q 624.6 1383.4 631.5 1387 Q 640.5 1391 646 1398.5 L 651 1408.5 L 649 1407.5 L 648 1403.5 L 639.5 1393 L 628.5 1387 L 615.5 1386 L 610 1388.5 L 608 1393 L 605 1394.5 Q 596.3 1401.8 596 1417.5 Q 599 1420.5 599 1426.5 L 605.5 1434 L 614.5 1438 L 629.5 1440 L 648 1432.5 L 650.5 1428 L 651 1429.5 L 646.5 1436 Q 639.3 1443.3 627.5 1446 L 614.5 1446 L 613.5 1445 L 605.5 1445 Q 604 1447.5 602.5 1444 L 596 1440 L 590 1430.5 L 587 1416.5 L 589 1412.5 L 590 1405.5 L 596 1395 L 602.5 1390 L 612.5 1385 Z " /><path fill="rgb(212,212,212)" stroke="rgb(212,212,212)" stroke-width="1" opacity="1" d="M 1046.5 1385 Q 1056.6 1383.4 1062.5 1386 Q 1073.1 1389.4 1079 1397.5 L 1085 1407.5 L 1086 1413.5 L 1085 1413.5 L 1083 1405.5 L 1080 1400 Q 1077.3 1401.1 1078 1398.5 L 1077 1396 L 1074 1394.5 Q 1074.8 1392.3 1072.5 1393 L 1062.5 1387 L 1048.5 1386 L 1043.5 1387 L 1040 1390.5 L 1031 1405.5 L 1030 1416.5 Q 1032.8 1427.8 1040.5 1434 L 1054.5 1440 L 1065.5 1440 L 1081 1433.5 L 1085.5 1423 L 1086 1425.5 L 1081 1436 L 1070.5 1443 L 1064.5 1445 Q 1057.8 1447.3 1047.5 1446 L 1037.5 1444 L 1028 1435.5 L 1022 1425.5 L 1021 1415.5 Q 1023.2 1414.2 1022 1409.5 L 1026 1400.5 L 1032.5 1393 L 1046.5 1385 Z " /><path fill="rgb(212,212,212)" stroke="rgb(212,212,212)" stroke-width="1" opacity="1" d="M 651.5 1410 L 653 1412.5 L 653 1424.5 L 651.5 1427 L 651 1423.5 L 652 1422.5 L 652 1413.5 L 651.5 1410 Z " /><path fill="rgb(212,212,212)" stroke="rgb(212,212,212)" stroke-width="1" opacity="1" d="M 1097.5 1413 L 1099 1419.5 L 1097.5 1424 L 1097.5 1413 Z " /><path fill="rgb(212,212,212)" stroke="rgb(212,212,212)" stroke-width="1" opacity="1" d="M 1086.5 1416 L 1087 1420.5 L 1086 1420.5 L 1086.5 1416 Z " /><path fill="rgb(212,212,212)" stroke="rgb(212,212,212)" stroke-width="1" opacity="1" d="M 1096.5 1426 L 1097 1429.5 L 1090 1444 Q 1087.3 1442.9 1088 1445.5 L 1076.5 1454 L 1077.5 1452 L 1080.5 1451 L 1089 1442.5 Q 1094.6 1436.1 1096.5 1426 Z " /><path fill="rgb(212,212,212)" stroke="rgb(212,212,212)" stroke-width="1" opacity="1" d="M 661.5 1431 L 662 1433.5 Q 657.2 1444.2 648.5 1451 L 640.5 1456 L 634.5 1457 L 634.5 1456 Q 647.3 1453.3 654 1444.5 L 661.5 1431 Z " /><path fill="rgb(212,212,212)" stroke="rgb(212,212,212)" stroke-width="1" opacity="1" d="M 992.5 1444 L 1016.5 1444 L 1020 1445.5 L 989.5 1446 L 989.5 1445 L 992.5 1444 Z " /><path fill="rgb(212,212,212)" stroke="rgb(212,212,212)" stroke-width="1" opacity="1" d="M 547.5 1446 L 555 1446.5 L 545.5 1448 L 543 1450.5 L 545.5 1454 L 542 1451.5 L 544.5 1447 L 547.5 1446 Z " /><path fill="rgb(212,212,212)" stroke="rgb(212,212,212)" stroke-width="1" opacity="1" d="M 980.5 1446 L 988 1446.5 L 976 1449 L 977.5 1453 L 979 1453.5 L 977.5 1454 L 975 1453 Q 974 1448.3 977.5 1447 L 980.5 1446 Z " /><path fill="rgb(212,212,212)" stroke="rgb(212,212,212)" stroke-width="1" opacity="1" d="M 547.5 1454 L 570 1456.5 L 555.5 1457 Q 554 1454.5 548.5 1456 L 547.5 1454 Z " /><path fill="rgb(212,212,212)" stroke="rgb(212,212,212)" stroke-width="1" opacity="1" d="M 980.5 1454 L 1003 1456.5 L 988.5 1457 Q 987 1454.5 981.5 1456 L 980.5 1454 Z " /><path fill="rgb(212,212,212)" stroke="rgb(212,212,212)" stroke-width="1" opacity="1" d="M 1073.5 1454 L 1075 1454.5 Q 1073 1457.5 1067.5 1457 L 1067.5 1456 L 1073.5 1454 Z " /><path fill="rgb(212,212,212)" stroke="rgb(212,212,212)" stroke-width="1" opacity="1" d="M 575.5 1457 L 616.5 1458 L 618.5 1457 L 623.5 1458 Q 625.3 1455.3 631.5 1457 L 631.5 1458 L 629.5 1459 L 577.5 1459 L 575.5 1457 Z " /><path fill="rgb(212,212,212)" stroke="rgb(212,212,212)" stroke-width="1" opacity="1" d="M 1008.5 1457 L 1049.5 1458 L 1051.5 1457 L 1056.5 1458 L 1057.5 1457 L 1065.5 1457 L 1065.5 1458 L 1062.5 1459 L 1011.5 1459 L 1008.5 1458 L 1008.5 1457 Z " /><path fill="rgb(255,255,255)" stroke="rgb(255,255,255)" stroke-width="1" opacity="1" d="M 0 0 L 1526 0 L 1526 1528.5 L 1524.5 1530 L 0 1530 L 0 0 Z M 1148 61 L 1142 64 Q 1131 75 1123 90 Q 1122 93 1125 94 L 1132 88 Q 1134 89 1133 86 L 1139 82 Q 1141 83 1140 80 L 1144 79 Q 1152 74 1154 64 Q 1153 60 1148 61 Z M 939 84 L 938 85 L 929 85 L 927 87 L 918 88 L 916 90 L 905 94 L 902 97 Q 898 96 899 99 L 894 102 L 884 113 L 875 127 L 875 130 L 869 141 L 866 153 L 860 164 Q 861 167 859 166 L 857 169 L 821 196 L 808 210 Q 809 212 806 211 L 806 214 L 803 217 L 799 228 L 797 230 L 793 245 L 793 271 L 794 276 L 796 278 L 797 284 L 802 293 L 808 301 L 825 314 L 833 318 Q 839 318 844 321 L 859 321 Q 863 318 870 318 L 876 314 L 874 311 L 854 311 L 846 308 L 842 308 L 825 299 L 813 287 L 814 285 L 814 287 Q 825 300 846 304 L 864 304 L 865 303 L 876 306 L 886 303 L 888 299 L 878 296 L 871 292 Q 862 286 858 276 L 858 262 L 861 257 L 871 249 Q 877 248 880 251 L 884 258 L 894 264 Q 904 265 911 263 L 913 261 L 916 261 L 922 258 L 930 252 L 931 249 L 934 248 Q 933 245 936 246 L 946 233 Q 945 230 948 231 L 961 213 L 964 212 Q 963 209 966 210 L 969 206 L 972 204 L 973 201 L 983 196 L 990 206 L 997 210 L 1010 210 L 1022 203 Q 1025 204 1024 201 L 1029 200 L 1034 201 L 1048 232 L 1056 244 L 1067 254 L 1070 255 L 1071 257 L 1071 276 L 1072 277 L 1071 301 L 1069 304 L 1068 315 Q 1064 317 1065 325 L 1063 327 L 1062 332 L 1056 344 L 1045 359 Q 1037 368 1026 374 L 1020 377 L 1013 378 L 1011 380 Q 1004 378 1003 381 L 978 380 L 976 378 L 967 377 L 945 365 Q 942 366 943 363 L 941 362 L 938 360 Q 922 347 912 329 Q 913 325 910 326 L 901 304 L 900 296 L 898 293 L 897 282 L 895 279 L 895 270 L 893 269 L 888 285 L 890 295 L 890 303 L 893 309 L 894 316 L 906 339 Q 905 341 908 340 L 908 343 L 912 348 Q 911 350 914 349 L 918 357 L 906 362 L 883 378 Q 880 377 881 380 L 879 381 Q 876 380 877 383 L 868 390 Q 865 389 866 392 L 861 396 Q 858 395 859 398 L 844 411 L 826 430 Q 827 432 824 431 L 805 455 Q 806 457 803 456 L 796 467 Q 797 469 794 468 L 784 484 Q 785 486 782 485 L 769 508 Q 770 511 767 510 L 767 513 L 752 543 Q 752 550 748 555 L 748 559 L 746 561 L 745 571 L 743 574 Q 745 580 742 582 L 742 605 L 745 619 L 752 634 L 761 646 L 774 657 Q 776 656 775 659 L 783 663 Q 785 662 784 665 L 787 665 L 796 671 L 801 672 L 809 677 L 805 683 Q 806 686 803 685 L 802 691 L 799 696 L 799 699 L 797 701 L 796 708 L 794 710 L 793 718 L 790 725 L 790 730 L 788 732 L 787 743 L 785 746 Q 786 750 784 752 L 784 758 L 782 761 L 781 775 L 779 777 L 778 791 L 776 794 L 775 808 L 773 811 L 772 825 L 770 827 L 769 840 L 767 843 L 766 854 L 763 862 L 763 867 L 761 869 L 760 879 L 758 881 L 757 888 L 755 890 L 754 897 L 745 913 Q 746 915 744 914 L 742 917 L 735 921 Q 728 921 724 924 L 717 924 L 702 927 L 684 927 L 683 928 L 667 928 L 666 929 L 642 929 L 641 930 L 591 930 L 590 931 L 581 931 L 575 933 L 569 933 L 565 935 L 559 943 L 558 951 L 556 954 L 555 965 L 549 963 L 510 963 Q 497 965 491 974 Q 492 976 489 975 L 489 978 L 480 995 L 476 1010 L 474 1013 L 473 1022 L 471 1024 L 470 1036 L 468 1039 L 467 1059 L 466 1060 L 467 1080 L 470 1087 L 478 1092 L 488 1091 L 496 1085 L 499 1081 Q 498 1078 501 1079 L 516 1052 L 522 1033 L 522 1020 L 521 1018 L 518 1016 L 513 1027 L 512 1033 L 504 1053 Q 497 1067 488 1078 L 483 1081 L 480 1081 L 478 1080 Q 479 1075 477 1074 L 478 1046 L 480 1043 L 481 1031 L 483 1028 L 484 1019 L 486 1017 L 487 1010 L 489 1008 L 490 1001 L 496 989 Q 495 985 498 986 L 499 983 L 505 977 Q 511 977 514 974 L 543 974 L 546 976 L 549 981 Q 548 986 550 988 Q 547 995 549 1008 L 547 1013 L 546 1034 L 543 1051 L 543 1089 L 545 1093 L 554 1096 L 563 1096 L 564 1097 L 596 1097 L 597 1098 L 677 1098 L 678 1097 L 706 1097 L 707 1096 L 726 1095 L 727 1094 L 741 1094 L 755 1091 L 765 1091 L 776 1088 L 789 1087 L 793 1085 L 799 1085 L 834 1075 L 855 1066 L 870 1056 Q 879 1048 885 1038 L 894 1016 L 895 1008 L 897 1006 L 898 997 L 901 989 L 901 983 L 903 981 L 904 968 L 906 965 L 907 950 L 909 946 Q 907 939 910 938 L 910 930 L 912 927 L 913 908 L 915 906 L 916 887 L 918 883 Q 916 876 919 875 L 919 866 L 921 865 L 922 857 L 926 855 L 926 881 L 924 886 L 923 914 L 921 918 L 920 940 L 918 943 L 917 959 L 915 962 L 914 972 L 912 975 L 911 987 L 909 990 L 908 1000 L 906 1003 L 902 1023 L 900 1025 L 899 1032 Q 896 1033 896 1039 L 890 1050 L 880 1060 Q 877 1059 878 1062 L 857 1077 L 836 1087 L 833 1090 L 829 1090 L 824 1102 Q 825 1106 823 1108 Q 824 1116 821 1121 L 821 1149 L 820 1150 L 821 1248 L 823 1256 L 824 1278 L 827 1288 Q 829 1293 836 1294 Q 841 1293 843 1296 L 857 1298 L 855 1304 L 855 1323 L 857 1333 L 864 1347 L 870 1351 L 881 1356 Q 876 1355 874 1358 L 679 1358 L 676 1356 L 608 1355 L 604 1353 L 561 1352 L 558 1350 L 534 1349 L 531 1347 L 520 1346 L 511 1340 Q 508 1341 509 1338 L 507 1337 Q 504 1338 505 1335 Q 494 1330 486 1321 L 486 1319 L 482 1319 L 483 1329 L 489 1340 L 495 1346 Q 494 1348 497 1347 L 498 1350 L 512 1359 L 519 1360 L 521 1362 L 537 1363 L 542 1365 L 576 1366 L 585 1368 L 650 1369 L 651 1370 L 663 1370 L 664 1371 L 717 1371 L 718 1372 L 957 1371 L 958 1370 L 973 1370 L 974 1369 L 1055 1368 L 1065 1366 L 1094 1366 L 1095 1365 L 1113 1365 L 1119 1363 L 1147 1362 L 1150 1360 L 1159 1359 Q 1160 1356 1166 1356 L 1175 1350 Q 1177 1351 1176 1348 L 1183 1344 L 1188 1338 Q 1187 1335 1190 1336 L 1196 1322 L 1195 1319 L 1188 1320 L 1179 1327 Q 1180 1329 1178 1328 L 1176 1331 L 1159 1343 L 1146 1347 Q 1136 1346 1131 1349 L 1094 1350 L 1092 1352 L 1025 1353 L 1023 1355 L 986 1355 L 993 1351 L 997 1344 L 996 1337 L 991 1329 L 982 1323 Q 976 1323 975 1320 L 968 1319 L 966 1317 L 954 1316 L 952 1314 L 943 1314 L 942 1313 L 931 1314 L 926 1317 L 924 1317 L 924 1321 Q 927 1320 929 1323 L 946 1324 L 949 1326 L 962 1327 L 964 1329 L 971 1330 Q 972 1333 978 1333 L 982 1336 Q 986 1337 985 1342 L 977 1346 L 964 1347 L 960 1349 L 914 1349 L 912 1347 L 895 1346 L 893 1344 L 883 1343 Q 881 1340 876 1340 L 870 1333 L 868 1325 L 868 1316 L 867 1315 L 867 1312 L 872 1305 Q 874 1306 873 1303 L 884 1303 L 885 1302 L 908 1302 L 911 1300 L 963 1299 L 966 1297 L 988 1296 L 991 1294 L 998 1294 Q 999 1292 1004 1293 L 1007 1291 L 1016 1290 L 1033 1281 L 1036 1275 L 1036 1255 L 1034 1248 L 1033 1226 L 1031 1220 L 1030 1202 L 1027 1188 L 1027 1177 L 1024 1163 L 1024 1152 L 1021 1137 L 1021 1123 L 1018 1106 L 1018 1090 L 1017 1089 L 1016 1069 L 1015 1068 L 1015 1041 L 1014 1040 L 1014 979 L 1015 978 L 1015 957 L 1017 946 L 1017 936 L 1018 935 L 1018 916 L 1020 905 L 1020 895 L 1021 894 L 1021 875 L 1022 874 L 1022 864 L 1023 863 L 1023 853 L 1024 852 L 1024 834 L 1025 833 L 1026 813 L 1027 812 L 1027 794 L 1028 793 L 1029 771 L 1030 770 L 1030 747 L 1031 746 L 1031 702 L 1030 701 L 1030 691 L 1028 681 L 1049 677 L 1051 675 L 1059 674 L 1061 672 L 1067 671 L 1072 667 L 1072 653 L 1070 651 L 1070 645 L 1068 638 L 1071 636 L 1076 636 L 1089 632 L 1093 632 L 1101 629 L 1106 629 L 1130 623 L 1136 623 L 1140 621 L 1148 620 L 1155 617 L 1169 614 L 1182 608 L 1185 608 L 1206 596 L 1212 589 Q 1211 586 1214 587 L 1215 577 L 1230 577 L 1241 575 L 1273 575 Q 1274 573 1280 574 L 1284 571 Q 1283 568 1286 569 L 1305 542 Q 1304 538 1307 539 L 1308 536 L 1341 487 L 1378 427 Q 1377 423 1380 424 L 1381 420 L 1390 406 Q 1389 402 1392 403 L 1393 399 L 1399 390 Q 1398 386 1401 387 L 1405 376 Q 1405 372 1403 371 L 1399 372 L 1394 376 Q 1395 378 1393 377 L 1382 393 Q 1383 396 1380 395 L 1379 400 L 1376 403 L 1376 405 L 1357 437 L 1309 512 Q 1310 514 1307 513 L 1307 516 L 1279 557 Q 1280 559 1277 558 L 1276 562 L 1255 562 L 1253 564 L 1153 565 L 1154 561 Q 1156 550 1152 547 L 1150 546 L 1140 546 L 1130 553 Q 1127 552 1128 555 L 1116 565 L 1115 558 L 1113 559 L 1113 567 L 1089 568 L 1086 570 L 1078 571 L 1069 576 L 1072 578 L 1103 580 L 1099 583 L 1092 585 L 1066 585 L 1054 587 L 1052 582 L 1049 579 L 1039 577 L 1027 578 L 1026 579 L 995 580 L 991 582 L 980 582 L 979 583 L 961 583 L 954 585 L 940 585 L 939 586 L 927 586 L 926 585 Q 918 583 919 587 L 926 590 L 931 590 L 934 592 Q 939 591 941 593 L 990 593 L 994 592 L 996 598 L 996 606 L 999 616 L 999 621 L 1005 635 L 1006 641 L 1013 651 Q 1015 650 1014 653 L 1018 652 L 1012 631 L 1012 626 L 1009 619 L 1009 610 L 1006 598 L 1006 591 L 1010 590 L 1027 590 L 1028 589 L 1041 589 L 1043 590 L 1047 598 Q 1047 604 1050 608 L 1054 628 L 1056 631 L 1057 641 L 1059 644 L 1060 657 L 1062 661 L 1056 662 L 1054 664 L 1046 665 L 1044 667 L 1034 668 L 1031 670 L 1019 671 L 1016 673 L 1000 674 L 997 676 L 976 677 L 972 679 L 954 679 L 953 680 L 886 680 L 885 679 L 871 679 L 867 677 Q 860 679 859 676 L 851 676 L 848 674 L 837 673 L 835 671 L 826 670 L 824 668 L 809 664 L 787 652 L 774 643 L 764 630 Q 765 627 762 628 Q 763 623 759 622 L 758 616 L 756 614 L 755 602 L 753 598 L 753 590 L 755 586 L 756 570 L 758 568 L 759 559 L 761 557 L 762 550 L 764 548 L 765 542 L 770 534 L 771 529 L 777 517 L 786 503 Q 785 499 788 500 L 792 493 Q 791 490 794 491 L 798 484 Q 797 481 800 482 L 801 479 L 816 460 Q 815 457 818 458 L 836 436 Q 838 437 837 435 L 840 433 L 840 432 L 860 412 Q 862 413 861 411 L 864 409 L 865 406 L 878 396 Q 880 397 879 394 L 900 379 L 905 376 L 910 375 L 929 376 L 931 378 L 936 379 L 948 385 Q 951 384 950 387 L 956 388 L 965 393 L 974 394 L 976 396 L 1001 396 L 1003 394 L 1012 393 L 1014 391 L 1032 384 L 1041 378 Q 1043 379 1042 376 L 1047 373 Q 1049 374 1048 372 L 1052 369 Q 1051 366 1054 367 L 1069 345 L 1075 331 L 1076 325 L 1078 323 L 1078 320 L 1080 318 L 1085 318 L 1095 315 L 1101 312 L 1120 300 L 1126 294 Q 1128 295 1127 293 L 1130 291 L 1133 287 Q 1132 284 1135 285 L 1129 296 L 1113 310 L 1088 323 L 1086 323 L 1086 327 L 1091 328 L 1106 327 L 1128 315 L 1144 297 L 1151 281 L 1154 267 L 1154 245 L 1153 240 L 1147 225 L 1138 213 L 1136 210 L 1133 208 L 1132 205 Q 1129 206 1130 204 L 1127 202 L 1126 199 Q 1123 200 1124 197 L 1123 197 L 1114 189 Q 1115 186 1112 187 L 1105 175 Q 1106 168 1103 165 L 1102 146 L 1100 143 L 1099 136 L 1093 126 L 1091 123 L 1079 112 L 1064 106 L 1046 106 L 1018 114 Q 1006 114 1002 108 Q 999 109 1000 106 L 985 94 L 974 90 L 972 88 L 953 84 L 939 84 Z M 1145 96 L 1139 98 Q 1136 99 1137 104 L 1144 107 Q 1151 106 1154 109 Q 1162 111 1165 107 L 1167 104 L 1166 99 L 1161 96 L 1145 96 Z M 1027 232 L 1026 233 Q 1022 232 1023 235 L 1021 235 L 1017 240 L 1018 245 L 1023 247 L 1030 245 L 1032 243 Q 1038 242 1040 246 L 1047 246 L 1049 242 L 1048 238 L 1042 232 L 1027 232 Z M 982 233 L 978 235 L 971 236 L 966 239 L 959 246 L 959 252 L 964 255 L 968 254 L 978 246 L 990 246 L 990 248 L 993 249 Q 1000 250 1001 246 L 1000 240 L 994 235 Q 988 236 987 233 L 982 233 Z M 977 276 L 975 277 Q 971 278 972 284 L 979 290 L 989 294 L 999 294 L 1011 288 L 1012 286 Q 1013 279 1010 278 L 1006 278 L 998 283 L 989 283 L 981 277 L 977 276 Z M 1019 276 L 1015 279 L 1015 283 Q 1020 288 1021 297 L 1031 313 Q 1033 312 1032 315 L 1039 315 L 1040 314 L 1040 311 L 1032 295 L 1043 294 L 1049 291 Q 1054 289 1052 281 L 1050 280 L 1046 280 L 1039 284 L 1032 282 L 1025 276 L 1019 276 Z M 986 326 L 983 330 Q 982 337 986 340 L 999 348 Q 1008 350 1012 346 L 1014 343 L 1010 336 L 1006 338 L 1003 338 L 996 335 L 994 330 Q 993 325 986 326 Z M 1038 401 L 1036 403 L 1042 426 L 1044 429 L 1048 450 L 1050 453 L 1051 465 L 1053 468 L 1054 480 L 1056 483 L 1057 495 L 1059 497 L 1060 508 L 1062 510 L 1062 514 L 1065 521 L 1069 524 L 1078 527 L 1105 526 L 1108 524 L 1119 523 L 1121 521 L 1130 520 L 1132 518 L 1136 518 L 1145 515 L 1147 518 L 1147 538 L 1149 542 Q 1149 545 1154 544 L 1155 543 L 1155 533 L 1157 526 L 1157 521 L 1160 515 L 1160 511 L 1168 506 L 1182 502 L 1198 494 L 1210 490 L 1218 485 L 1237 478 Q 1247 476 1253 479 Q 1262 484 1268 492 Q 1267 494 1270 493 L 1271 496 L 1271 497 L 1259 487 L 1251 484 L 1245 484 Q 1242 487 1237 486 L 1225 494 Q 1226 496 1223 495 L 1219 505 L 1220 511 L 1223 516 L 1239 527 Q 1242 526 1241 529 L 1249 533 L 1250 538 L 1245 537 L 1243 535 L 1236 534 L 1234 532 L 1225 531 L 1223 529 L 1208 529 L 1204 531 L 1185 532 L 1184 533 L 1175 533 L 1174 532 Q 1167 530 1166 534 L 1174 538 L 1181 539 L 1184 541 L 1202 541 L 1205 539 L 1223 539 Q 1226 542 1233 542 L 1235 544 L 1242 545 L 1244 547 Q 1248 546 1250 548 Q 1258 548 1260 543 Q 1262 532 1257 529 L 1252 523 L 1241 516 Q 1237 517 1238 514 L 1230 510 L 1229 507 L 1230 503 L 1237 497 Q 1243 497 1246 494 L 1249 494 L 1255 497 L 1258 499 L 1259 502 L 1269 509 L 1276 512 L 1284 511 L 1287 506 L 1290 508 L 1296 506 L 1298 501 L 1295 490 L 1280 469 L 1268 460 L 1262 458 L 1252 459 L 1246 462 L 1243 462 L 1194 486 L 1191 486 L 1175 493 L 1172 493 L 1170 495 L 1163 496 L 1161 498 L 1157 498 L 1154 499 Q 1151 498 1152 501 L 1145 502 L 1143 504 L 1135 505 L 1133 507 L 1125 508 L 1123 510 L 1114 511 L 1111 513 L 1098 514 L 1095 516 L 1078 516 L 1073 513 L 1072 506 L 1070 503 L 1069 493 L 1067 491 L 1066 479 L 1064 477 L 1063 465 L 1061 462 L 1060 451 L 1058 449 L 1057 439 L 1055 437 L 1054 429 L 1052 427 L 1051 421 L 1045 410 L 1045 407 Q 1042 408 1043 406 L 1038 401 Z M 883 503 L 875 509 Q 876 511 874 510 L 867 519 L 855 541 L 851 553 L 851 561 L 850 562 L 852 573 L 855 574 L 858 566 L 858 561 L 861 557 L 861 554 L 867 540 L 877 526 Q 876 523 879 524 L 886 514 L 888 507 L 883 503 Z M 1010 505 L 1005 510 L 1005 519 L 1008 528 L 1008 534 L 1011 545 L 1015 553 Q 1016 557 1021 556 L 1023 553 Q 1022 543 1018 536 L 1018 528 L 1016 521 L 1015 507 L 1010 505 Z M 1021 599 L 1018 600 L 1014 606 L 1016 610 L 1020 612 Q 1025 613 1027 611 L 1028 609 L 1027 602 Q 1026 598 1021 599 Z M 316 1250 L 315 1251 L 287 1252 L 286 1253 L 273 1253 L 272 1252 L 207 1253 L 206 1254 L 185 1255 L 184 1256 L 177 1256 L 177 1260 L 188 1261 L 193 1263 L 232 1264 L 233 1265 L 263 1265 L 264 1266 L 315 1266 L 316 1265 L 321 1266 L 370 1263 L 376 1261 Q 378 1260 377 1256 L 373 1253 L 355 1253 L 345 1251 L 316 1250 Z M 232 1286 L 231 1287 L 167 1287 L 166 1288 L 153 1288 L 152 1289 L 132 1289 L 131 1290 L 122 1290 L 117 1292 L 105 1293 L 103 1296 L 105 1297 Q 112 1296 115 1299 L 130 1299 L 131 1300 L 204 1300 L 205 1301 L 270 1300 L 271 1299 L 283 1299 L 286 1297 L 295 1296 Q 297 1295 296 1292 L 294 1289 L 275 1289 L 272 1287 L 232 1286 Z M 271 1319 L 270 1320 L 251 1320 L 250 1321 L 236 1321 L 235 1320 L 218 1320 L 217 1321 L 205 1321 L 204 1322 L 172 1323 L 164 1326 Q 161 1325 162 1329 Q 164 1331 171 1330 L 173 1332 L 195 1332 L 196 1333 L 299 1333 L 300 1332 L 309 1332 L 311 1330 L 317 1330 Q 319 1329 318 1325 L 314 1322 L 301 1322 L 297 1320 L 271 1319 Z M 611 1374 L 593 1383 L 580 1400 L 576 1414 L 577 1429 L 585 1445 L 584 1444 L 560 1444 L 557 1446 L 545 1447 L 542 1452 L 549 1456 L 575 1457 L 578 1459 L 630 1459 L 633 1457 L 641 1456 L 649 1451 L 661 1437 L 665 1424 L 664 1409 L 656 1393 Q 648 1383 637 1377 Q 630 1377 628 1374 L 611 1374 Z M 1045 1374 Q 1042 1377 1036 1377 L 1032 1380 L 1029 1380 Q 1030 1383 1028 1382 Q 1014 1392 1010 1413 L 1011 1429 L 1014 1436 L 1020 1443 Q 1019 1445 1022 1444 L 1023 1446 L 1017 1444 L 993 1444 L 989 1446 L 978 1447 Q 974 1448 975 1453 L 982 1456 L 1008 1457 L 1012 1459 L 1063 1459 L 1080 1453 L 1088 1446 Q 1087 1443 1090 1444 L 1096 1433 L 1099 1420 L 1096 1404 L 1088 1391 Q 1081 1382 1071 1377 Q 1064 1377 1061 1374 L 1045 1374 Z " /><path fill="rgb(255,255,255)" stroke="rgb(255,255,255)" stroke-width="1" opacity="1" d="M 1257 468 L 1263.5 469 L 1270 473 Q 1268.9 475.7 1271.5 475 L 1277.5 482 Q 1279.8 481.3 1279 483.5 L 1286 492.5 L 1288 497.5 L 1283 493.5 L 1281 490.5 L 1268.5 476 L 1257 470 L 1257 468 Z " /><path fill="rgb(255,255,255)" stroke="rgb(255,255,255)" stroke-width="1" opacity="1" d="M 1140.5 560 L 1141 562.5 L 1138 570.5 L 1138 580.5 L 1141.5 584 L 1151.5 587 L 1175.5 587 L 1193.5 583 L 1203.5 578 Q 1206.3 579.3 1204 580.5 L 1204 582.5 L 1199.5 587 L 1180.5 598 L 1156.5 607 L 1152.5 607 L 1133.5 613 L 1127.5 613 L 1118.5 616 L 1111.5 616 L 1103.5 619 L 1097.5 619 Q 1091.1 622.6 1081.5 623 L 1078.5 625 L 1070.5 626 L 1067.5 628 L 1066 622.5 L 1066 615.5 L 1064 612.5 L 1063 602.5 L 1061 597.5 L 1062.5 596 L 1093.5 596 Q 1094.8 593.8 1099.5 595 Q 1100.3 592.3 1104.5 593 L 1115.5 583 Q 1116.8 585.2 1118 582.5 L 1118 580.5 L 1129.5 569 L 1140.5 560 Z " /><path fill="rgb(255,255,255)" stroke="rgb(255,255,255)" stroke-width="1" opacity="1" d="M 615.5 1386 L 628.5 1387 L 635.5 1390 L 643 1396.5 L 651 1409.5 L 652 1422.5 L 651 1427.5 L 646.5 1434 L 643.5 1434 L 633.5 1439 L 623.5 1440 L 611.5 1437 L 602 1430.5 L 599 1426.5 Q 599 1420.5 596 1417.5 L 596 1410.5 L 599 1402.5 L 606.5 1393 Q 608.8 1393.8 608 1391.5 L 611.5 1387 L 615.5 1386 Z " /><path fill="rgb(255,255,255)" stroke="rgb(255,255,255)" stroke-width="1" opacity="1" d="M 1048.5 1386 L 1062.5 1387 L 1074 1393 L 1075.5 1396 Q 1077.8 1395.3 1077 1397.5 L 1078 1400 Q 1080.7 1398.9 1080 1401.5 L 1083 1405.5 Q 1083 1411.5 1086 1414.5 L 1086 1422.5 L 1084 1424.5 L 1083 1430.5 L 1079.5 1435 L 1070.5 1437 L 1065.5 1440 L 1054.5 1440 Q 1042.4 1437.6 1036 1429.5 Q 1029.2 1422.8 1030 1408.5 Q 1033.9 1394.9 1043.5 1387 L 1048.5 1386 Z " /><path fill="rgb(38,34,35)" stroke="rgb(38,34,35)" stroke-width="1" opacity="1" d="M 1148.5 62 Q 1152.3 61.3 1153 63.5 L 1152 68.5 L 1142.5 78 L 1137 81 Q 1138.1 83.7 1135.5 83 L 1124.5 93 L 1124 90.5 Q 1131.2 75.7 1142.5 65 L 1148.5 62 Z " /><path fill="rgb(38,34,35)" stroke="rgb(38,34,35)" stroke-width="1" opacity="1" d="M 931.5 86 L 958.5 86 L 973.5 90 L 985.5 96 L 1002.5 111 Q 1007.5 115 1016.5 115 L 1041.5 108 L 1060.5 107 Q 1082 110.5 1092 125.5 L 1100 142.5 L 1104 175.5 Q 1109.8 187.7 1119.5 196 L 1137 212.5 Q 1147.3 223.7 1152 240.5 Q 1150.7 245.3 1153 246.5 L 1153 263.5 Q 1150.2 265.2 1152 271.5 L 1147 287.5 Q 1141.3 301.8 1130.5 311 Q 1121 320 1107.5 325 L 1098.5 327 L 1091.5 327 L 1087 326 L 1089.5 322 Q 1113.8 314.3 1129 297.5 L 1139 279.5 L 1137 278.5 L 1124.5 294 Q 1112.2 305.7 1095.5 313 L 1087.5 316 L 1078.5 316 L 1077 317.5 Q 1068.9 352.9 1045.5 373 L 1036.5 380 L 1010.5 392 L 1006.5 392 L 997.5 395 L 978.5 395 L 963.5 391 L 924.5 374 L 908.5 374 L 900.5 377 L 876.5 395 L 839 430.5 Q 815.6 455.1 796 483.5 Q 781 505.5 769 530.5 L 760 552.5 L 756 566.5 L 756 570.5 L 754 574.5 Q 755.5 580 753 581.5 L 753 604.5 L 759 623.5 L 769 639 Q 771.7 637.9 771 640.5 Q 782.2 652.3 797.5 660 L 808.5 664 L 810.5 666 L 840.5 675 L 845.5 675 L 856.5 678 L 879.5 680 L 880.5 681 L 937.5 682 L 938.5 681 L 958.5 681 L 959.5 680 L 978.5 679 L 979.5 678 L 988.5 678 L 1002.5 675 L 1009.5 675 L 1039.5 669 L 1062 662 L 1061 648.5 L 1051 607.5 L 1046 592.5 L 1041.5 588 L 1020.5 588 L 1019.5 589 L 1009.5 589 L 1004 590 L 1007 604.5 L 1008 619.5 L 1010 623.5 L 1014 642.5 L 1016 645.5 L 1016 651 L 1012 648.5 L 1007 639.5 L 1006 633.5 L 1004 631.5 L 1001 622.5 L 998 609.5 L 997 596.5 L 995 591 L 984.5 591 L 983.5 592 L 943.5 592 L 923 587.5 L 944.5 587 L 952.5 585 L 980.5 584 L 989.5 582 L 1012.5 581 L 1023.5 579 L 1046.5 579 L 1052 583.5 L 1053 588 L 1059.5 587 L 1076.5 587 L 1077.5 586 L 1097.5 585 L 1106 578.5 L 1081.5 578 Q 1079.8 575.3 1073.5 577 L 1071 575.5 L 1075.5 573 L 1090.5 569 L 1112.5 568 L 1124 560 L 1125.5 557 L 1136.5 549 L 1142.5 546 L 1147.5 546 L 1152 549.5 L 1153 558.5 L 1151 567 L 1195.5 567 L 1196.5 566 L 1223.5 566 L 1224.5 565 L 1242.5 565 L 1243.5 564 L 1268.5 564 Q 1270 561.5 1275.5 563 L 1278 560.5 L 1348 453.5 L 1387 386.5 L 1397.5 374 L 1403 373 L 1403 378.5 L 1400 385.5 L 1351 468.5 L 1303 542.5 L 1286 566.5 L 1280.5 572 L 1278.5 573 L 1266.5 573 L 1265.5 574 L 1215.5 575 L 1214 576.5 Q 1214.1 590.6 1204.5 595 L 1185.5 606 L 1161.5 615 L 1142.5 619 L 1138.5 621 L 1128.5 622 L 1124.5 624 L 1118.5 624 L 1109.5 627 L 1099.5 628 L 1095.5 630 L 1091.5 630 L 1083.5 633 L 1067 636 L 1071 655.5 L 1071 664.5 L 1067.5 669 L 1039.5 678 L 1030.5 679 L 1026 681.5 L 1028 686.5 L 1028 693.5 L 1030 702.5 L 1031 729.5 L 1030 730.5 L 1030 744.5 L 1029 745.5 L 1029 758.5 L 1028 759.5 L 1028 779.5 L 1027 780.5 L 1026 803.5 L 1025 804.5 L 1025 821.5 L 1024 822.5 L 1023 843.5 L 1022 844.5 L 1022 862.5 L 1021 863.5 L 1020 884.5 L 1019 885.5 L 1019 903.5 L 1018 904.5 L 1017 926.5 L 1016 927.5 L 1016 944.5 L 1015 945.5 L 1015 955.5 L 1014 956.5 L 1014 966.5 L 1013 967.5 L 1013 1053.5 L 1014 1054.5 L 1014 1067.5 L 1015 1068.5 L 1015 1078.5 L 1016 1079.5 L 1016 1095.5 L 1017 1096.5 L 1017 1105.5 L 1019 1115.5 L 1019 1126.5 L 1020 1127.5 L 1020 1136.5 L 1022 1144.5 L 1022 1155.5 L 1025 1170.5 L 1025 1180.5 L 1026 1181.5 L 1026 1188.5 L 1027 1189.5 L 1028 1204.5 L 1029 1205.5 L 1029 1212.5 L 1032 1229.5 L 1032 1238.5 L 1034 1247.5 L 1034 1276.5 L 1029.5 1282 L 1013.5 1289 L 991.5 1294 L 976.5 1295 L 968.5 1297 L 955.5 1297 L 954.5 1298 L 912.5 1299 L 904.5 1301 L 879.5 1301 L 871.5 1303 L 868 1306.5 L 866 1314.5 L 867 1315.5 L 867 1324.5 L 869 1333.5 L 875.5 1341 L 886.5 1345 L 895.5 1346 L 900.5 1348 L 927.5 1350 L 928.5 1351 L 948.5 1351 L 949.5 1350 L 972.5 1348 L 986 1343 L 985 1337 L 968.5 1328 L 937.5 1322 L 929.5 1322 L 925 1319.5 Q 924.3 1317.3 926.5 1318 L 931.5 1315 L 948.5 1315 L 976.5 1322 L 992 1332.5 L 995 1337.5 L 996 1342.5 Q 994.5 1349 989.5 1352 L 983 1355.5 L 1009.5 1356 L 1010.5 1355 L 1071.5 1354 L 1072.5 1353 L 1102.5 1352 L 1103.5 1351 L 1117.5 1351 L 1127.5 1349 L 1147.5 1348 L 1162.5 1342 L 1186.5 1322 L 1194 1320 L 1194 1324.5 L 1191 1331.5 L 1178.5 1346 Q 1169.5 1353.5 1157.5 1358 L 1143.5 1361 L 1107.5 1363 L 1106.5 1364 L 1066.5 1365 L 1065.5 1366 L 1046.5 1366 L 1045.5 1367 L 1013.5 1367 L 1012.5 1368 L 940.5 1369 L 939.5 1370 L 787.5 1370 L 786.5 1371 L 747.5 1371 L 746.5 1370 L 678.5 1370 L 677.5 1369 L 591.5 1367 L 590.5 1366 L 576.5 1366 L 575.5 1365 L 559.5 1365 L 558.5 1364 L 535.5 1363 L 512.5 1358 Q 500.6 1352.4 493 1342.5 Q 485.2 1334.8 483 1321.5 L 485 1320.5 L 491.5 1328 L 517.5 1346 L 528.5 1349 L 534.5 1349 L 541.5 1351 L 550.5 1351 L 551.5 1352 L 563.5 1352 L 574.5 1354 L 591.5 1354 L 592.5 1355 L 630.5 1356 L 631.5 1357 L 688.5 1358 L 689.5 1359 L 833.5 1359 L 834.5 1358 L 894 1357.5 L 874.5 1352 Q 867.1 1349.4 863 1343.5 Q 854.7 1329.3 856 1305.5 L 858 1297.5 L 856.5 1296 L 839.5 1294 L 831.5 1291 L 829 1288.5 L 825 1274.5 L 825 1265.5 L 823 1255.5 L 823 1236.5 L 822 1235.5 L 822 1129.5 L 823 1128.5 L 823 1114.5 L 824 1113.5 L 825 1102.5 L 829 1092 L 860.5 1076 L 883 1059 L 884.5 1056 Q 886.8 1056.8 886 1054.5 L 889 1053 L 895 1043.5 L 904 1019.5 L 904 1015.5 L 907 1008.5 L 908 999.5 L 913 981.5 L 913 976.5 L 916 967.5 L 919 952.5 L 920 937.5 L 922 930.5 L 922 920.5 L 923 919.5 L 923 911.5 L 925 902.5 L 925 890.5 L 926 889.5 L 926 876.5 L 927 875.5 L 928 857.5 L 925.5 853 L 921 855.5 L 919 868.5 L 917 872.5 L 916 887.5 L 914 894.5 L 914 901.5 L 910 923.5 L 910 930.5 L 908 936.5 L 907 950.5 L 905 955.5 L 904 967.5 L 901 978.5 L 901 983.5 L 899 987.5 L 898 996.5 L 886 1033.5 L 873.5 1051 L 860.5 1061 L 835.5 1073 L 801.5 1083 Q 792.9 1082.9 787.5 1086 L 780.5 1086 L 769.5 1089 L 761.5 1089 L 747.5 1092 L 735.5 1092 L 734.5 1093 L 716.5 1094 L 715.5 1095 L 695.5 1095 L 694.5 1096 L 676.5 1096 L 675.5 1097 L 596.5 1097 L 595.5 1096 L 554.5 1095 L 547.5 1093 L 545 1090.5 L 544 1087.5 L 544 1055.5 L 545 1054.5 L 545 1042.5 L 546 1041.5 L 547 1025.5 L 548 1024.5 L 548 1014.5 L 551 998.5 L 551 984.5 L 546.5 975 L 538.5 973 L 515.5 973 L 506.5 975 L 498 981.5 L 489 1000.5 L 479 1034.5 L 478 1046.5 L 476 1052.5 L 476 1076.5 L 480.5 1083 Q 487.3 1080.8 491 1075.5 Q 500.3 1064.8 506 1050.5 L 518 1018 Q 521 1016.8 520 1020.5 L 521 1021.5 L 521 1031.5 L 518 1042.5 L 509 1063.5 Q 502.3 1076.3 492.5 1086 Q 488 1091.5 477.5 1091 L 473 1089 L 470 1084.5 L 467 1073.5 L 467 1055.5 L 468 1054.5 L 470 1034.5 L 472 1030.5 L 472 1025.5 L 479 1000.5 L 488 979.5 L 497.5 969 L 503.5 966 L 512.5 964 L 545.5 964 L 556 966 L 560 943.5 L 566.5 935 L 581.5 932 L 641.5 931 L 642.5 930 L 666.5 930 L 667.5 929 L 702.5 928 L 731.5 923 L 739.5 920 L 746 913.5 L 756 893.5 L 765 862.5 L 766 853.5 L 768 849.5 L 768 844.5 L 771 834.5 L 772 823.5 L 774 818.5 L 774 812.5 L 777 801.5 L 784 757.5 L 786 752.5 L 786 747.5 L 789 738.5 L 793 717.5 L 795 714.5 L 796 707.5 L 801 693.5 L 810 677.5 L 810 675 Q 778.3 665 759 641.5 Q 750.1 629.9 745 614.5 L 744 602.5 L 743 601.5 L 743 585.5 L 744 584.5 L 745 570.5 L 753 543.5 L 774 500.5 Q 807.4 446.4 852.5 404 L 862 397 Q 860.9 394.3 863.5 395 Q 879.7 379.2 899.5 367 L 914.5 359 L 920 358 L 919 354.5 L 905 335.5 L 895 314.5 L 890 294.5 L 890 279.5 L 892.5 272 L 895 278.5 L 899 300.5 L 905 317.5 Q 915 339 930.5 355 Q 932.8 354.3 932 356.5 L 935 358 Q 933.9 360.7 936.5 360 Q 944.1 367.9 954.5 373 L 969.5 379 Q 978.1 378.9 983.5 382 L 1004.5 382 L 1024.5 376 Q 1039 368 1049 355.5 L 1061 336.5 L 1069 314.5 L 1073 291.5 L 1073 270.5 L 1072 269.5 L 1072 256.5 L 1068.5 253 L 1055 240.5 L 1036 202.5 L 1032.5 199 L 1027.5 199 L 1022.5 201 L 1017.5 205 L 1006.5 210 L 1000.5 210 L 991 205 L 983.5 195 Q 977.4 194.4 975.5 198 L 959 214.5 L 937 242.5 L 927.5 252 L 909.5 262 L 895.5 263 L 886 259 L 880.5 250 Q 877.6 247.4 871.5 248 Q 864.6 249.5 861 254.5 L 856 264.5 L 856 271.5 Q 858.9 285.1 868.5 292 L 887 300.5 L 880.5 304 L 871.5 304 Q 869.5 301 863.5 302 L 862.5 303 L 846.5 303 Q 823.9 299.1 813 283.5 L 807.5 275 L 807 278.5 L 815 292 Q 817.7 290.9 817 293.5 Q 824.8 301.8 835.5 307 L 853.5 312 L 872.5 312 L 874 313.5 L 862.5 319 L 847.5 320 Q 846 317.5 840.5 319 L 823.5 312 L 807 297.5 L 796 277.5 L 793 261.5 L 793 252.5 L 796 236.5 L 802 220.5 L 816 201 L 852.5 174 L 861 165.5 L 877 125.5 Q 884.4 110.9 896.5 101 L 913.5 91 L 931.5 86 Z M 806 272 L 805 274 L 807 275 L 806 272 Z M 1141 559 L 1136 562 L 1106 591 L 1098 594 L 1090 594 L 1089 595 L 1068 595 L 1067 594 L 1061 595 L 1060 598 L 1062 604 L 1062 609 L 1064 613 L 1065 625 L 1068 629 L 1095 621 L 1119 617 L 1124 615 L 1130 615 L 1164 606 L 1182 599 L 1202 587 L 1206 582 Q 1207 578 1205 577 L 1193 582 L 1172 586 L 1155 586 Q 1153 584 1148 585 L 1140 582 L 1139 580 L 1140 567 L 1142 564 Q 1143 560 1141 559 Z M 1157 576 L 1157 577 L 1161 578 Q 1168 579 1172 577 L 1157 576 Z " /><path fill="rgb(38,34,35)" stroke="rgb(38,34,35)" stroke-width="1" opacity="1" d="M 1146.5 97 L 1154.5 98 L 1159.5 97 L 1166 101.5 Q 1166.5 106.5 1162.5 107 L 1158.5 108 L 1155.5 107 L 1153.5 107 L 1140.5 105 L 1138 102.5 Q 1136.3 97.7 1140.5 99 L 1146.5 97 Z " /><path fill="rgb(38,34,35)" stroke="rgb(38,34,35)" stroke-width="1" opacity="1" d="M 1030.5 232 Q 1041.7 230.8 1046 236.5 L 1047 243.5 L 1042.5 246 L 1036.5 242 L 1031.5 242 L 1022.5 246 L 1019 243.5 Q 1017.8 236.3 1022.5 235 L 1030.5 232 Z " /><path fill="rgb(38,34,35)" stroke="rgb(38,34,35)" stroke-width="1" opacity="1" d="M 976.5 235 Q 994 232.5 1000 241.5 L 999 247 L 994.5 248 Q 990 244.5 982.5 244 Q 973.1 245.6 968 251.5 L 967.5 253 L 961 253 L 960 246.5 L 962.5 243 L 965.5 241 L 976.5 235 Z " /><path fill="rgb(38,34,35)" stroke="rgb(38,34,35)" stroke-width="1" opacity="1" d="M 976.5 277 L 978.5 277 L 985.5 283 L 997.5 284 L 1008.5 279 Q 1012 280 1011 285.5 Q 1005 293 991.5 293 Q 990.2 290.7 985.5 292 L 979.5 289 L 973 282.5 L 974 278 L 976.5 277 Z " /><path fill="rgb(38,34,35)" stroke="rgb(38,34,35)" stroke-width="1" opacity="1" d="M 1018.5 277 L 1024.5 277 L 1032.5 284 L 1039.5 285 L 1048.5 281 L 1052 283.5 L 1049.5 289 Q 1044.4 293.9 1033.5 293 L 1031 292 L 1031 295.5 L 1039 312.5 Q 1038 315 1033.5 314 L 1028 307.5 L 1022 295.5 L 1019 285.5 L 1016 281.5 L 1016 278 L 1018.5 277 Z " /><path fill="rgb(38,34,35)" stroke="rgb(38,34,35)" stroke-width="1" opacity="1" d="M 986.5 327 L 992 328 Q 992.3 334.4 997.5 337 Q 1001.3 339.7 1009.5 338 L 1012 340.5 Q 1012.8 345.3 1009.5 346 L 1000.5 347 Q 990.9 344.6 986 337.5 L 984 329.5 L 986.5 327 Z " /><path fill="rgb(38,34,35)" stroke="rgb(38,34,35)" stroke-width="1" opacity="1" d="M 1037.5 403 L 1041 404.5 L 1052 426.5 L 1056 440.5 L 1056 444.5 L 1058 448.5 L 1059 457.5 L 1061 461.5 L 1065 485.5 L 1067 489.5 L 1068 499.5 L 1071 509.5 L 1075.5 516 L 1091.5 517 L 1092.5 516 L 1105.5 515 L 1129.5 509 L 1132.5 507 L 1148.5 503 L 1153.5 500 L 1157.5 500 L 1163.5 497 L 1175.5 494 L 1222.5 474 L 1233.5 467 L 1249.5 461 L 1260.5 459 Q 1274.2 463.3 1282 473.5 L 1294 490.5 L 1296 496.5 L 1296 502.5 L 1294 506 L 1285.5 506 L 1284 507.5 L 1282.5 510 L 1277.5 511 L 1267.5 507 L 1254.5 495 Q 1249.8 492.7 1241.5 494 Q 1232.4 496.4 1228 503.5 L 1228 507.5 L 1231.5 512 L 1255 527 L 1259 534.5 L 1259 541.5 L 1257 545 Q 1253.7 547.1 1245.5 546 L 1221.5 538 L 1206.5 538 L 1197.5 540 L 1186.5 540 Q 1185.2 537.8 1180.5 539 L 1167 533.5 L 1170.5 533 L 1171.5 534 L 1187.5 534 L 1202.5 531 L 1218.5 530 L 1232.5 533 L 1247.5 539 L 1252 539 Q 1251.8 532.6 1246.5 530 L 1228.5 519 L 1224 514.5 Q 1219.5 511 1221 501.5 L 1229.5 491 L 1241.5 486 L 1252.5 486 L 1264 492 Q 1262.9 494.7 1265.5 494 Q 1268 498.5 1273 499 L 1272 494.5 L 1264.5 486 L 1250.5 477 L 1241.5 476 L 1226.5 480 L 1197.5 494 L 1160 508 L 1155 523.5 L 1154 541.5 L 1152.5 543 L 1149 539.5 L 1148 535.5 L 1148 517.5 L 1146 514 Q 1136 514.8 1128.5 519 L 1124.5 519 L 1121.5 521 L 1112.5 522 L 1108.5 524 L 1094.5 525 L 1093.5 526 L 1079.5 526 Q 1078.3 523.8 1073.5 525 L 1066 519.5 L 1062 509.5 Q 1061.5 499.5 1058 492.5 L 1058 487.5 L 1056 482.5 L 1052 457.5 L 1049 448.5 L 1049 443.5 L 1037.5 403 Z M 1256 467 L 1254 470 L 1257 470 L 1267 476 Q 1276 483 1282 495 L 1287 498 Q 1288 502 1290 499 Q 1284 485 1275 476 Q 1272 477 1273 474 L 1265 468 L 1256 467 Z " /><path fill="rgb(38,34,35)" stroke="rgb(38,34,35)" stroke-width="1" opacity="1" d="M 882.5 504 L 886 506.5 Q 886.7 512.2 884 514.5 Q 870.8 528.8 862 547.5 L 856 563.5 L 856 568.5 L 853.5 572 L 851 562.5 L 852 561.5 L 853 549.5 L 862 529.5 Q 868.8 514.8 880.5 505 L 882.5 504 Z " /><path fill="rgb(38,34,35)" stroke="rgb(38,34,35)" stroke-width="1" opacity="1" d="M 1010.5 506 L 1014 508.5 L 1016 530.5 L 1022 552.5 L 1019.5 555 L 1016 551.5 L 1013 546.5 L 1010 536.5 L 1009 526.5 L 1007 522.5 L 1007 508.5 L 1010.5 506 Z " /><path fill="rgb(38,34,35)" stroke="rgb(38,34,35)" stroke-width="1" opacity="1" d="M 299.5 1252 L 343.5 1252 L 354.5 1254 L 368.5 1254 Q 369.8 1256.2 374.5 1255 L 376 1256.5 Q 377.5 1260.9 374.5 1260 L 373.5 1261 L 366.5 1261 L 357.5 1263 L 345.5 1263 L 344.5 1264 L 232.5 1264 L 231.5 1263 L 198.5 1262 L 197.5 1261 L 188.5 1261 L 179 1259 Q 177.7 1255.3 183.5 1257 L 184.5 1256 L 211.5 1255 L 212.5 1254 L 270.5 1253 L 271.5 1254 L 285.5 1254 L 286.5 1253 L 298.5 1253 L 299.5 1252 Z " /><path fill="rgb(38,34,35)" stroke="rgb(38,34,35)" stroke-width="1" opacity="1" d="M 180.5 1288 L 188.5 1288 L 189.5 1289 L 216.5 1289 L 217.5 1288 L 263.5 1288 L 264.5 1289 L 274.5 1289 L 275.5 1290 L 291.5 1290 L 295 1292.5 L 293.5 1295 L 279.5 1298 L 262.5 1298 L 261.5 1299 L 244.5 1299 L 241.5 1300 Q 240 1297.5 234.5 1299 L 233.5 1300 L 200.5 1300 L 199.5 1299 L 161.5 1299 L 160.5 1298 L 117.5 1298 L 105 1296 Q 103.6 1292 110.5 1294 L 116.5 1292 L 133.5 1291 L 142.5 1289 L 179.5 1289 L 180.5 1288 Z " /><path fill="rgb(38,34,35)" stroke="rgb(38,34,35)" stroke-width="1" opacity="1" d="M 255.5 1321 L 290.5 1321 L 301.5 1323 L 311.5 1323 L 317 1325.5 L 315.5 1329 L 305.5 1331 L 290.5 1331 L 289.5 1332 L 244.5 1333 L 243.5 1332 L 211.5 1332 L 210.5 1331 L 176.5 1331 Q 174.8 1328.3 168.5 1330 L 163 1327.5 L 167.5 1325 L 195.5 1323 L 196.5 1322 L 254.5 1322 L 255.5 1321 Z " /><path fill="rgb(38,34,35)" stroke="rgb(38,34,35)" stroke-width="1" opacity="1" d="M 613.5 1375 L 630.5 1376 L 648 1385 Q 646.9 1387.7 649.5 1387 Q 662 1397.5 664 1418.5 L 663 1419.5 L 663 1427.5 L 660 1435.5 L 649.5 1449 L 633.5 1457 L 619.5 1458 L 617.5 1457 L 616.5 1458 L 589.5 1458 L 588.5 1457 L 570.5 1457 L 569.5 1456 L 550.5 1455 L 546.5 1454 L 543 1450.5 L 545.5 1448 L 555.5 1446 L 589 1445.5 L 587 1445 L 579 1430.5 L 577 1415.5 Q 579.2 1414.2 578 1409.5 L 584 1394.5 L 595.5 1382 Q 602.8 1376.8 613.5 1375 Z M 613 1385 L 603 1390 L 596 1395 L 590 1406 L 589 1413 L 587 1417 L 590 1431 L 596 1440 L 603 1444 Q 604 1447 606 1445 L 614 1445 L 615 1446 L 628 1446 Q 639 1443 647 1436 L 653 1425 L 653 1413 L 646 1399 Q 641 1391 632 1387 Q 625 1383 613 1385 Z " /><path fill="rgb(38,34,35)" stroke="rgb(38,34,35)" stroke-width="1" opacity="1" d="M 1047.5 1375 L 1057.5 1375 L 1071.5 1379 Q 1082.1 1384.4 1089 1393.5 L 1095 1404.5 L 1097 1411.5 L 1097 1425.5 L 1092 1438.5 L 1080.5 1451 L 1066.5 1457 L 1052.5 1458 L 1050.5 1457 L 1049.5 1458 L 1022.5 1458 L 1021.5 1457 L 1003.5 1457 L 1002.5 1456 L 982.5 1455 L 976 1451.5 Q 974.9 1448.2 977.5 1449 L 988.5 1446 L 1024 1445.5 L 1019 1440.5 L 1013 1430.5 L 1011 1423.5 L 1011 1413.5 Q 1014.1 1395.1 1025.5 1385 Q 1033.7 1377.2 1047.5 1375 Z M 1047 1385 L 1033 1393 L 1026 1401 L 1022 1410 Q 1023 1414 1021 1416 L 1022 1426 L 1028 1436 L 1038 1444 L 1048 1446 Q 1058 1447 1065 1445 L 1071 1443 L 1081 1436 L 1085 1429 L 1087 1421 L 1085 1408 L 1079 1398 Q 1073 1389 1063 1386 Q 1057 1383 1047 1385 Z " /></svg>