<?xml version="1.0" standalone="no"?>
<!DOCTYPE svg PUBLIC "-//W3C//DTD SVG 20010904//EN"
 "http://www.w3.org/TR/2001/REC-SVG-20010904/DTD/svg10.dtd">
<svg version="1.0" xmlns="http://www.w3.org/2000/svg"
 width="1224.000000pt" height="1584.000000pt" viewBox="0 0 1224.000000 1584.000000"
 preserveAspectRatio="xMidYMid meet">

<g transform="translate(0.000000,1584.000000) scale(0.100000,-0.100000)"
fill="#000000" stroke="none">
<path d="M7085 15299 c-91 -28 -182 -93 -230 -164 -22 -33 -62 -114 -88 -181
-54 -137 -62 -146 -222 -266 -172 -129 -239 -247 -239 -424 0 -87 2 -96 39
-169 65 -126 166 -197 299 -211 53 -5 70 -3 112 17 l49 23 -75 7 c-130 12
-201 42 -266 111 -22 24 -49 57 -58 73 -11 17 3 6 32 -26 76 -84 126 -102 281
-105 75 -2 132 1 144 8 19 10 15 13 -39 38 -67 30 -108 73 -125 130 -15 50 -5
86 36 127 45 45 86 45 114 0 41 -67 128 -77 220 -25 75 42 82 48 169 158 95
121 191 220 213 220 10 0 28 -13 41 -29 24 -31 76 -61 104 -61 9 0 46 17 83
37 40 22 74 34 84 30 9 -3 42 -57 73 -119 42 -85 71 -128 116 -175 l61 -61 -5
-149 c-4 -133 -8 -157 -36 -240 -60 -177 -166 -299 -298 -343 -59 -20 -81 -22
-176 -17 -101 5 -115 9 -191 46 -141 68 -263 209 -327 376 -17 42 -30 83 -30
91 0 8 -7 47 -17 87 l-16 72 -13 -30 c-39 -89 20 -289 127 -430 40 -54 48 -75
27 -75 -24 -1 -163 -88 -248 -157 -47 -37 -142 -124 -211 -193 -204 -203 -359
-410 -469 -629 -144 -288 -172 -495 -91 -668 52 -108 174 -218 301 -269 30
-13 56 -28 58 -33 2 -6 -10 -34 -26 -63 -32 -56 -61 -144 -88 -268 -9 -41 -20
-93 -25 -115 -5 -22 -20 -103 -34 -180 -95 -544 -141 -716 -226 -836 -37 -52
-199 -75 -634 -89 -420 -13 -431 -14 -466 -51 -18 -19 -28 -44 -33 -79 -11
-83 -3 -78 -139 -73 -208 9 -263 -21 -326 -179 -16 -40 -37 -104 -46 -143 -9
-38 -22 -87 -28 -109 -6 -21 -11 -96 -12 -166 0 -142 10 -175 55 -185 71 -16
146 59 221 221 35 74 42 100 43 154 1 36 -3 67 -8 70 -4 3 -27 -47 -50 -110
-48 -131 -56 -147 -103 -213 -43 -58 -68 -74 -90 -55 -13 11 -15 31 -10 133 7
133 44 285 98 405 44 96 60 104 201 108 l117 4 17 -33 c18 -36 17 -64 -11
-299 -8 -69 -15 -182 -15 -252 l0 -128 27 -17 c25 -17 64 -18 498 -18 465 0
715 13 880 46 28 5 75 14 105 20 109 21 275 72 354 110 95 46 153 92 197 155
31 46 93 213 109 294 5 25 15 77 23 115 23 109 59 343 78 500 16 139 41 236
58 233 9 -2 16 -8 16 -13 -10 -220 -54 -609 -79 -699 -8 -28 -22 -87 -31 -131
-36 -172 -78 -294 -120 -349 -46 -60 -167 -150 -275 -206 -106 -53 -113 -62
-130 -162 -14 -77 -7 -903 8 -994 17 -107 25 -117 117 -135 57 -12 79 -20 77
-30 -7 -29 -2 -161 8 -197 22 -81 60 -119 140 -138 33 -8 31 -9 -29 -14 -58
-4 -62 -6 -40 -16 13 -7 100 -17 193 -24 93 -6 188 -18 210 -25 46 -17 217
-20 232 -5 5 5 38 16 74 24 36 9 71 23 78 33 12 16 9 18 -30 23 -41 5 -42 6
-20 18 60 34 46 103 -31 154 -93 62 -304 99 -352 62 -17 -13 -18 -16 -5 -24 8
-5 27 -10 41 -10 57 0 224 -41 270 -67 68 -37 65 -56 -13 -79 -120 -34 -464
-20 -580 25 -44 17 -70 56 -77 118 -14 128 -16 127 334 142 336 15 498 37 607
83 81 34 82 37 75 201 -4 78 -11 167 -17 197 -9 49 -21 153 -50 430 -5 47 -19
177 -31 290 -18 165 -23 267 -23 525 -1 176 2 361 7 410 4 50 16 207 27 350
11 143 24 316 30 385 33 401 43 733 26 856 l-9 61 39 7 c68 12 208 60 222 76
12 15 12 43 -4 145 l-6 40 78 18 c44 10 93 22 109 27 17 5 55 14 85 19 261 51
400 95 523 165 69 39 97 73 97 119 l0 24 196 6 196 5 30 29 c62 59 349 497
571 874 161 272 187 329 149 329 -30 0 -77 -65 -202 -280 -103 -177 -524 -835
-556 -869 -13 -15 -65 -18 -573 -37 l-193 -7 7 31 c10 50 -3 91 -31 98 -35 9
-74 -10 -143 -70 l-61 -53 -98 -10 c-54 -6 -116 -19 -137 -28 l-40 -18 40 -8
c22 -4 69 -8 105 -8 64 -1 64 -1 45 -20 -17 -17 -41 -21 -157 -27 -123 -6
-138 -5 -138 9 0 38 -79 46 -275 27 -55 -6 -158 -15 -230 -21 -71 -6 -166 -14
-210 -18 l-80 -6 53 -13 c31 -7 124 -12 221 -12 185 0 181 2 181 -63 1 -98 89
-321 116 -294 3 3 -4 43 -16 89 -12 46 -26 110 -30 143 -4 33 -11 76 -15 96
l-7 36 69 6 c104 10 160 8 170 -5 24 -30 98 -309 105 -393 3 -39 2 -40 -47
-58 -188 -70 -674 -118 -990 -98 -99 6 -207 17 -240 23 -83 15 -222 56 -271
79 -22 10 -44 19 -47 19 -4 0 -36 18 -70 39 -101 65 -160 137 -197 247 -70
202 55 548 327 907 94 125 382 411 494 492 75 54 87 60 143 63 56 3 71 -1 174
-47 143 -64 201 -81 273 -81 74 0 143 18 243 64 138 63 257 210 297 365 12 47
15 51 43 51 38 0 143 49 207 96 27 19 66 58 89 86 47 60 51 53 10 -19 -35 -61
-112 -126 -190 -160 -76 -34 -83 -38 -88 -52 -7 -22 115 -9 170 18 62 29 140
100 171 154 45 77 61 144 62 252 0 93 -2 105 -32 168 -26 54 -52 87 -124 155
-120 114 -136 143 -153 273 -21 158 -65 237 -161 287 -43 23 -62 27 -130 26
-50 -1 -109 -9 -159 -23 -101 -29 -129 -24 -201 39 -100 88 -187 120 -320 119
-48 -1 -104 -8 -140 -20z m1349 -2906 c-4 -10 -8 -40 -9 -68 l0 -50 50 -13
c31 -8 79 -11 125 -8 65 4 98 11 208 42 29 8 28 -7 -4 -39 -59 -59 -283 -146
-454 -177 -152 -27 -217 -41 -281 -60 -39 -12 -77 -19 -84 -17 -7 3 -15 25
-18 49 -4 23 -11 63 -16 88 -5 25 -7 48 -5 52 3 5 52 8 110 8 67 0 116 5 137
14 18 7 75 54 127 104 91 87 132 114 114 75z"/>
<path d="M7708 14404 c-30 -16 -36 -45 -14 -63 11 -9 22 -8 49 5 34 16 37 16
62 0 29 -19 55 -8 55 24 0 46 -92 67 -152 34z"/>
<path d="M7389 14386 c-56 -30 -72 -49 -64 -76 6 -20 55 -30 55 -10 0 19 62
42 99 36 84 -12 86 -12 89 10 4 30 -29 54 -84 59 -39 4 -58 0 -95 -19z"/>
<path d="M7409 14134 c-11 -14 -8 -21 24 -50 36 -33 55 -38 122 -34 53 3 94
41 82 75 -5 13 -10 13 -41 0 -50 -21 -103 -19 -133 5 -31 24 -37 25 -54 4z"/>
<path d="M7665 14140 c-3 -5 0 -22 8 -37 9 -16 23 -50 33 -77 20 -59 73 -120
92 -108 10 7 8 21 -12 67 -31 69 -31 64 -7 58 29 -7 90 16 102 39 16 30 -2 43
-42 29 -45 -16 -54 -14 -87 14 -30 25 -76 33 -87 15z"/>
<path d="M7474 13826 c-8 -21 16 -66 48 -89 29 -22 103 -26 122 -7 18 18 -8
45 -37 42 -34 -4 -66 14 -77 44 -11 27 -47 33 -56 10z"/>
<path d="M7800 13370 c0 -7 14 -59 30 -116 33 -112 42 -154 65 -281 13 -78 32
-162 57 -260 5 -23 21 -52 35 -65 23 -21 33 -23 126 -22 78 1 126 8 202 29 55
15 112 30 128 32 l27 5 0 -69 c0 -71 16 -113 38 -99 7 4 12 31 12 60 0 29 7
73 16 99 15 45 18 47 94 77 44 16 82 30 86 30 3 0 64 27 136 61 159 74 226 86
280 49 52 -36 98 -82 98 -99 0 -11 -8 -8 -27 10 -69 63 -124 74 -199 40 -73
-33 -105 -107 -69 -159 9 -12 47 -40 86 -63 114 -68 114 -102 -1 -58 -63 25
-139 28 -320 13 l-115 -9 49 -20 c52 -20 124 -24 216 -11 48 7 69 4 154 -23
121 -39 155 -33 156 27 0 36 -35 77 -98 116 -69 42 -95 68 -90 92 5 26 50 55
95 61 37 5 45 2 85 -36 25 -22 62 -48 82 -56 36 -15 76 -13 76 5 0 5 15 10 33
12 29 3 32 6 35 42 3 28 -4 49 -24 80 -74 113 -138 166 -202 166 -38 0 -134
-33 -188 -65 -72 -42 -270 -124 -414 -171 -292 -96 -305 -99 -422 -109 -73 -7
-78 -6 -102 18 -14 14 -27 42 -31 63 -3 22 -12 64 -20 94 -7 30 -16 75 -20
100 -4 25 -11 59 -15 75 -5 17 -17 64 -26 105 -22 98 -114 284 -114 230z
m1393 -401 c33 -17 99 -90 126 -139 22 -40 22 -41 3 -31 -11 6 -30 26 -41 45
-20 32 -68 78 -123 118 -20 15 -20 17 -5 18 10 0 28 -5 40 -11z"/>
<path d="M6799 12712 c-84 -93 -154 -272 -135 -347 8 -30 26 -24 26 8 0 53 86
211 172 320 17 21 20 32 12 44 -18 29 -30 25 -75 -25z"/>
<path d="M7622 12738 c-16 -16 -15 -69 3 -157 22 -103 47 -150 70 -131 11 9
10 23 -5 74 -10 34 -21 95 -25 134 -7 74 -22 101 -43 80z"/>
</g>
</svg>
