<?xml version="1.0" standalone="no"?>
<!DOCTYPE svg PUBLIC "-//W3C//DTD SVG 20010904//EN"
 "http://www.w3.org/TR/2001/REC-SVG-20010904/DTD/svg10.dtd">
<svg version="1.0" xmlns="http://www.w3.org/2000/svg"
 width="1224.000000pt" height="1584.000000pt" viewBox="0 0 1224.000000 1584.000000"
 preserveAspectRatio="xMidYMid meet">

<g transform="translate(0.000000,1584.000000) scale(0.100000,-0.100000)"
fill="#000000" stroke="none">
<path d="M8134 13491 c-33 -20 -134 -162 -134 -188 0 -11 5 -11 28 5 56 41
182 168 182 185 0 23 -36 22 -76 -2z"/>
<path d="M6608 13330 c-87 -27 -181 -85 -233 -142 -53 -59 -83 -116 -145 -273
-26 -66 -55 -123 -74 -143 -17 -19 -88 -76 -158 -128 -179 -133 -247 -234
-278 -410 -34 -194 81 -403 266 -482 81 -35 190 -35 254 -1 l45 24 -85 6
c-141 11 -234 49 -306 124 -37 39 -78 104 -71 111 3 3 8 -3 11 -14 10 -31 101
-111 154 -135 37 -17 69 -22 152 -24 58 -2 122 -6 143 -9 26 -4 45 -1 63 11
l25 16 -78 39 c-56 27 -85 48 -102 74 -29 44 -39 123 -21 166 17 42 65 80 101
80 28 0 69 -30 69 -50 0 -23 65 -50 122 -50 46 0 67 6 120 36 82 46 93 57 203
194 91 113 214 240 233 240 5 0 22 -16 36 -35 27 -36 91 -75 122 -75 9 0 52
19 95 42 62 34 83 41 96 32 10 -5 50 -72 88 -147 59 -114 80 -145 127 -187
l56 -50 7 -105 c14 -196 -34 -388 -134 -536 -75 -112 -150 -172 -257 -205 -87
-27 -175 -29 -292 -6 -237 48 -473 324 -521 609 -7 38 -17 84 -23 103 l-11 35
-13 -30 c-42 -98 24 -328 140 -483 25 -34 47 -66 49 -71 1 -5 -34 -27 -78 -50
-245 -124 -612 -486 -846 -834 -93 -139 -209 -375 -250 -507 -34 -111 -47
-269 -31 -368 30 -178 178 -341 392 -431 30 -13 56 -25 58 -26 2 -2 -15 -38
-37 -81 -42 -80 -55 -121 -97 -299 -38 -162 -52 -232 -74 -370 -11 -71 -25
-146 -30 -165 -5 -19 -14 -69 -20 -110 -7 -41 -16 -88 -20 -105 -4 -16 -13
-57 -20 -90 -36 -185 -110 -385 -163 -443 -26 -28 -91 -47 -232 -66 -126 -17
-512 -36 -726 -36 -80 0 -171 -5 -203 -12 -74 -14 -101 -47 -117 -144 l-12
-69 -171 0 c-147 0 -176 -3 -204 -18 -76 -42 -134 -143 -185 -322 -39 -140
-51 -220 -51 -350 -1 -96 2 -126 17 -152 22 -41 73 -53 123 -30 111 53 275
409 224 487 -14 21 -21 7 -61 -105 -42 -117 -82 -197 -130 -262 -73 -97 -109
-80 -109 51 1 196 94 522 168 589 34 31 92 46 179 47 99 0 127 -9 149 -51 18
-36 18 -41 -15 -360 -12 -113 -20 -250 -19 -305 l3 -99 40 -20 c38 -18 65 -19
555 -19 343 -1 555 3 635 12 180 19 284 32 340 43 28 6 88 17 135 25 206 36
422 116 526 195 120 92 192 258 250 579 8 47 19 104 24 128 6 23 10 56 10 72
0 16 4 49 9 72 12 51 37 219 51 338 17 136 34 205 53 208 14 3 17 -5 17 -50 0
-110 -56 -636 -77 -713 -8 -33 -17 -71 -20 -85 -32 -185 -96 -401 -139 -475
-44 -77 -186 -187 -341 -264 -95 -47 -102 -53 -117 -93 -25 -70 -36 -242 -36
-579 0 -360 12 -595 36 -688 15 -55 21 -65 49 -77 18 -7 53 -16 77 -19 92 -13
84 -3 80 -108 -8 -171 44 -270 154 -298 l49 -13 -40 -8 c-22 -4 -335 -7 -695
-7 -864 -1 -1490 23 -1720 65 -76 14 -93 22 -175 79 -49 35 -101 75 -114 89
-47 50 -55 21 -17 -59 28 -60 100 -136 153 -163 83 -43 252 -61 783 -85 369
-16 2383 -15 2755 2 649 29 858 42 926 59 96 24 222 122 268 209 16 31 14 63
-5 63 -24 0 -44 -13 -130 -85 -87 -73 -159 -105 -233 -105 -26 0 -72 -4 -102
-10 -69 -12 -373 -27 -704 -35 l-260 -7 32 21 c34 22 49 57 39 94 -8 29 -14
37 -56 68 -55 40 -79 51 -175 75 -105 27 -210 31 -240 8 -20 -15 -20 -15 -1
-30 11 -8 37 -14 57 -14 68 0 228 -38 281 -67 108 -57 63 -92 -144 -113 -160
-17 -362 2 -509 47 -67 20 -91 58 -97 152 -4 65 -1 80 15 100 19 23 28 25 164
32 659 36 754 47 888 106 82 36 91 51 91 157 0 50 -4 115 -10 145 -5 31 -16
117 -25 191 -24 200 -33 281 -45 373 -15 118 -48 478 -60 647 -17 254 -12 597
15 975 33 452 44 602 55 755 37 488 45 757 24 877 -12 70 -15 66 61 79 53 9
204 60 221 75 17 14 18 76 3 153 -7 31 -10 59 -7 61 3 3 25 9 49 14 24 5 80
18 124 29 44 11 107 25 140 32 308 62 448 106 577 181 85 50 105 71 116 123
l8 41 219 7 219 8 29 27 c67 65 395 567 641 982 209 352 222 381 173 381 -34
0 -85 -71 -237 -333 -109 -186 -587 -935 -621 -971 -8 -9 -170 -17 -643 -32
l-219 -7 7 35 c9 51 -2 94 -30 108 -31 17 -86 -7 -146 -63 -82 -76 -106 -87
-182 -87 -69 0 -206 -33 -206 -49 0 -10 75 -21 150 -21 116 0 72 -36 -62 -50
-142 -15 -218 -13 -218 5 0 8 -11 22 -25 31 -27 18 -87 17 -340 -6 -60 -5
-168 -15 -240 -21 -71 -6 -166 -14 -210 -17 l-80 -7 79 -19 c66 -16 106 -18
247 -14 192 6 173 16 188 -97 17 -116 68 -257 107 -295 l26 -25 -5 35 c-2 19
-16 80 -30 135 -14 55 -28 127 -31 160 -3 33 -9 70 -12 81 -6 21 -2 22 108 29
63 4 123 6 134 4 10 -2 27 -21 37 -42 25 -50 107 -378 107 -426 l0 -38 -87
-26 c-118 -35 -365 -78 -561 -97 -135 -13 -543 -13 -651 1 -182 22 -348 64
-473 119 -188 83 -285 182 -338 344 -85 262 125 749 511 1183 91 101 302 299
398 372 151 115 190 118 390 32 177 -77 241 -94 322 -88 90 7 131 18 233 63
77 33 102 51 176 124 93 93 129 150 171 275 l27 80 43 6 c96 12 223 90 310
191 32 38 59 66 59 62 0 -3 -16 -35 -36 -71 -44 -78 -107 -131 -221 -185 -88
-41 -104 -55 -82 -70 45 -29 207 31 290 109 109 101 153 211 153 388 1 104 -1
114 -32 179 -26 55 -57 94 -151 190 -65 66 -125 135 -134 152 -9 17 -23 83
-31 147 -12 94 -22 129 -50 186 -79 157 -226 206 -441 146 -145 -40 -159 -37
-260 53 -57 50 -128 89 -200 108 -71 19 -227 16 -297 -6z m1517 -3287 c-17
-39 -22 -115 -8 -128 17 -17 100 -35 163 -35 57 0 176 23 238 46 79 29 69 -8
-19 -68 -95 -65 -294 -137 -468 -168 -183 -33 -236 -44 -313 -67 -93 -28 -118
-26 -118 8 0 12 -7 58 -16 101 -9 44 -14 81 -12 83 2 3 60 6 129 9 68 2 137 9
154 15 16 7 78 59 137 117 99 96 152 131 133 87z"/>
<path d="M8125 13263 c-62 -15 -29 -51 59 -64 74 -12 116 -2 116 25 0 37 -95
58 -175 39z"/>
<path d="M7317 12323 c-45 -18 -60 -56 -31 -78 16 -11 23 -11 46 1 33 17 70
18 85 3 6 -6 23 -9 36 -5 22 5 24 10 18 38 -11 55 -77 73 -154 41z"/>
<path d="M6930 12287 c-46 -27 -56 -37 -58 -64 -4 -45 30 -55 67 -19 40 39 84
48 136 31 54 -19 77 -11 73 24 -4 34 -57 61 -118 61 -34 0 -60 -9 -100 -33z"/>
<path d="M6973 12023 c-27 -10 -13 -50 27 -78 78 -54 218 -33 228 34 5 29 -17
35 -61 16 -54 -22 -103 -19 -141 10 -18 14 -35 25 -37 24 -2 0 -10 -3 -16 -6z"/>
<path d="M7261 12021 c-11 -7 -10 -16 8 -53 11 -24 21 -49 21 -54 0 -15 51
-107 73 -131 21 -24 42 -29 51 -14 3 5 -5 33 -19 63 -33 70 -32 78 9 78 49 0
85 16 95 42 15 38 -9 54 -48 33 -37 -19 -86 -8 -116 25 -19 21 -51 26 -74 11z"/>
<path d="M7042 11668 c-17 -22 9 -80 48 -106 27 -18 45 -22 85 -20 46 3 50 5
50 28 0 20 -5 26 -30 28 -52 5 -83 23 -94 53 -11 31 -40 39 -59 17z"/>
<path d="M7441 11013 c40 -148 59 -230 89 -388 44 -227 59 -276 96 -300 63
-41 227 -28 447 36 94 27 97 26 97 -77 0 -72 16 -114 38 -100 7 4 12 34 13 69
0 34 8 86 17 116 l17 53 140 53 c77 28 178 71 225 95 154 78 227 87 301 39 49
-31 109 -92 109 -110 0 -13 -36 6 -47 25 -17 28 -78 56 -125 56 -96 0 -188
-70 -188 -143 0 -28 8 -42 43 -73 24 -22 71 -56 105 -76 93 -56 78 -91 -20
-49 -80 34 -138 41 -229 29 -46 -6 -124 -13 -174 -14 -49 -2 -92 -3 -95 -4 -3
-1 18 -11 45 -23 45 -19 65 -21 200 -19 138 2 156 0 224 -23 81 -27 140 -32
159 -13 18 18 14 80 -7 107 -10 13 -56 49 -102 80 -66 44 -85 62 -87 82 -4 36
45 71 109 77 45 4 51 2 102 -42 84 -71 146 -89 170 -49 4 7 23 13 42 13 64 0
59 61 -13 167 -47 70 -111 129 -159 149 -30 13 -42 13 -96 0 -34 -9 -105 -38
-158 -65 -177 -91 -330 -151 -674 -261 -121 -38 -189 -51 -287 -53 l-101 -2
-19 36 c-10 21 -23 59 -28 85 -12 71 -44 222 -74 354 -28 124 -104 300 -129
300 -11 0 -6 -30 24 -137z m1590 -360 c55 -53 116 -140 104 -151 -4 -4 -19 8
-34 27 -57 75 -112 128 -153 149 l-43 22 38 0 c31 0 46 -8 88 -47z"/>
<path d="M6279 10410 c-33 -36 -67 -89 -100 -156 -52 -111 -71 -189 -56 -244
8 -33 10 -34 23 -15 8 10 14 29 14 41 0 57 85 219 163 312 39 47 47 82 22 102
-14 11 -23 5 -66 -40z"/>
<path d="M7201 10431 c-22 -14 2 -194 37 -273 22 -51 39 -65 55 -49 7 7 4 32
-11 88 -11 43 -24 112 -28 153 -8 83 -20 102 -53 81z"/>
<path d="M2250 5279 c-36 -5 -101 -6 -145 -3 -76 6 -502 -10 -592 -22 -44 -5
-56 -19 -25 -28 9 -2 116 -12 237 -22 173 -13 299 -15 590 -11 393 5 528 17
523 47 -7 38 -396 64 -588 39z"/>
<path d="M1330 5029 c-149 -6 -339 -24 -369 -35 -82 -29 326 -48 869 -41 353
5 444 15 438 45 -2 13 -21 19 -78 26 -91 10 -647 13 -860 5z"/>
<path d="M1750 4800 c-312 -9 -412 -21 -387 -46 16 -16 121 -23 452 -30 378
-7 576 3 604 31 8 8 11 18 7 22 -24 24 -314 34 -676 23z"/>
<path d="M4395 4411 c-54 -25 -119 -95 -146 -156 -33 -76 -31 -185 4 -246 15
-25 27 -49 27 -52 0 -4 -33 -7 -72 -7 -90 0 -197 -15 -212 -30 -7 -7 -5 -15 6
-27 23 -22 318 -46 485 -39 110 5 128 8 181 35 60 30 118 91 140 146 19 45 18
133 -2 192 -23 68 -85 137 -157 174 -50 25 -70 29 -136 29 -55 0 -90 -6 -118
-19z m214 -71 c74 -37 131 -129 131 -210 0 -83 -36 -131 -124 -171 -42 -18
-59 -20 -125 -14 -93 9 -123 23 -158 76 -38 57 -38 152 -1 225 50 95 185 142
277 94z"/>
<path d="M7383 4405 c-105 -53 -158 -144 -158 -270 0 -82 8 -106 57 -161 l19
-21 -128 -6 c-123 -5 -193 -19 -193 -38 0 -23 66 -37 240 -48 332 -23 456 -2
532 91 77 93 90 197 39 304 -52 111 -139 166 -271 172 -76 3 -90 1 -137 -23z
m222 -64 c142 -64 180 -272 65 -354 -149 -105 -375 -15 -369 148 4 88 40 147
121 194 63 36 122 40 183 12z"/>
</g>
</svg>
